<svg xmlns="http://www.w3.org/2000/svg" xmlns:xlink="http://www.w3.org/1999/xlink" width="400" zoomAndPan="magnify" viewBox="0 0 300 74.999997" height="100" preserveAspectRatio="xMidYMid meet" version="1.0"><defs><g/><clipPath id="3d9d0c2984"><path d="M 7.5 1.664062 L 79.167969 1.664062 L 79.167969 73.335938 L 7.5 73.335938 Z M 7.5 1.664062 " clip-rule="nonzero"/></clipPath><clipPath id="bf5e8c02ff"><path d="M 0.5 0.664062 L 72.167969 0.664062 L 72.167969 72.335938 L 0.5 72.335938 Z M 0.5 0.664062 " clip-rule="nonzero"/></clipPath><clipPath id="e138ad1f42"><rect x="0" width="73" y="0" height="73"/></clipPath><clipPath id="88ed5b79e4"><rect x="0" width="199" y="0" height="34"/></clipPath><clipPath id="091b93945c"><path d="M 0.078125 14 L 31 14 L 31 41 L 0.078125 41 Z M 0.078125 14 " clip-rule="nonzero"/></clipPath><clipPath id="30c125526c"><path d="M 23 14 L 54 14 L 54 51.601562 L 23 51.601562 Z M 23 14 " clip-rule="nonzero"/></clipPath><clipPath id="ee96faeabf"><rect x="0" width="56" y="0" height="52"/></clipPath></defs><g clip-path="url(#3d9d0c2984)"><g transform="matrix(1, 0, 0, 1, 7, 1)"><g clip-path="url(#e138ad1f42)"><g clip-path="url(#bf5e8c02ff)"><path fill="#01b47d" d="M 0.5 0.664062 L 72.167969 0.664062 L 72.167969 72.335938 L 0.5 72.335938 Z M 0.5 0.664062 " fill-opacity="1" fill-rule="nonzero"/></g></g></g></g><g transform="matrix(1, 0, 0, 1, 92, 21)"><g clip-path="url(#88ed5b79e4)"><g fill="#1d1d1b" fill-opacity="1"><g transform="translate(1.024143, 25.569998)"><g><path d="M 1.609375 -11.640625 C 1.804688 -13.066406 1.96875 -13.984375 2.09375 -14.390625 C 2.269531 -15.046875 2.523438 -15.5 2.859375 -15.75 C 3.140625 -15.96875 3.578125 -16.109375 4.171875 -16.171875 C 4.410156 -16.210938 4.726562 -16.234375 5.125 -16.234375 C 5.53125 -16.234375 6.03125 -16.234375 6.625 -16.234375 L 18.796875 -16.234375 C 18.703125 -15.492188 18.601562 -14.875 18.5 -14.375 C 18.40625 -13.882812 18.316406 -13.519531 18.234375 -13.28125 C 18.035156 -12.644531 17.707031 -12.2 17.25 -11.84375 C 16.960938 -11.613281 16.445312 -11.433594 15.703125 -11.296875 C 15.378906 -11.242188 14.972656 -11.214844 14.484375 -11.21875 C 14.003906 -11.21875 13.429688 -11.21875 12.765625 -11.21875 L 6.796875 -11.21875 C 5.265625 -11.21875 4.253906 -11.261719 3.765625 -11.34375 C 3.269531 -11.433594 2.890625 -11.597656 2.625 -11.84375 C 2.210938 -12.210938 1.941406 -12.78125 1.8125 -13.546875 C 1.761719 -13.820312 1.710938 -14.171875 1.65625 -14.609375 C 1.601562 -15.046875 1.59375 -15.722656 1.609375 -16.640625 Z M 1.609375 -11.640625 " fill="#1d1d1b"/></g></g></g></g><g transform="matrix(1, 0, 0, 1, 92, 21)"><g clip-path="url(#88ed5b79e4)"><g fill="#1d1d1b" fill-opacity="1"><g transform="translate(71.419866, 25.569998)"><g><path d="M 0.078125 -12.515625 C 0.0351562 -13.027344 0.0078125 -13.359375 0 -13.515625 C -0.0195312 -14.078125 0.046875 -14.585938 0.1875 -15.046875 C 0.335938 -15.515625 0.554688 -15.875 0.84375 -16.125 C 1.125 -16.359375 1.519531 -16.546875 2.03125 -16.6875 C 2.46875 -16.800781 3.148438 -16.859375 4.0625 -16.859375 C 5 -16.859375 6.363281 -16.859375 8.15625 -16.859375 L 13.265625 -16.859375 C 14.503906 -16.859375 15.355469 -16.75 15.828125 -16.53125 C 16.320312 -16.296875 16.6875 -15.996094 16.9375 -15.625 C 17.1875 -15.25 17.351562 -14.765625 17.421875 -14.171875 C 17.460938 -13.785156 17.484375 -13.246094 17.484375 -12.546875 C 17.484375 -11.84375 17.34375 -11.289062 17.0625 -10.875 C 16.785156 -10.46875 16.394531 -10.179688 15.890625 -10.015625 C 15.546875 -9.898438 14.921875 -9.84375 14.015625 -9.84375 C 11.589844 -9.84375 8.394531 -9.84375 4.4375 -9.84375 C 3.386719 -9.84375 2.75 -9.800781 2.53125 -9.71875 C 2.320312 -9.632812 2.144531 -9.46875 2.015625 -9.234375 C 1.875 -8.992188 1.785156 -8.664062 1.75 -8.25 C 1.71875 -7.925781 1.703125 -7.476562 1.703125 -6.90625 C 1.703125 -6.332031 1.71875 -5.894531 1.75 -5.59375 C 1.785156 -5.289062 1.871094 -5.039062 2.015625 -4.84375 C 2.15625 -4.644531 2.371094 -4.488281 2.65625 -4.375 C 2.953125 -4.25 3.566406 -4.191406 4.5 -4.203125 C 7.035156 -4.21875 10.3125 -4.21875 14.328125 -4.21875 C 15.308594 -4.21875 15.984375 -4.351562 16.359375 -4.609375 C 16.734375 -4.859375 17.007812 -5.207031 17.1875 -5.65625 C 17.335938 -6.058594 17.441406 -6.59375 17.5 -7.265625 C 17.535156 -7.671875 17.550781 -8.296875 17.546875 -9.125 C 17.539062 -9.960938 17.503906 -10.621094 17.4375 -11.109375 C 17.328125 -11.875 17.148438 -12.402344 16.90625 -12.6875 C 16.644531 -12.984375 16.265625 -13.1875 15.765625 -13.296875 C 15.484375 -13.359375 14.953125 -13.390625 14.171875 -13.390625 C 13.378906 -13.390625 12.308594 -13.390625 10.96875 -13.390625 Z M 0.078125 -12.515625 " fill="#1d1d1b"/></g></g></g></g></svg>
