<svg xmlns="http://www.w3.org/2000/svg" xmlns:xlink="http://www.w3.org/1999/xlink" width="180" zoomAndPan="magnify" viewBox="0 0 135 135.000003" height="180" preserveAspectRatio="xMidYMid meet" version="1.0"><defs><g/><clipPath id="acfac15b02"><path d="M 9.507812 9.011719 L 125.492188 9.011719 L 125.492188 124.996094 L 9.507812 124.996094 Z M 9.507812 9.011719 " clip-rule="nonzero"/></clipPath><clipPath id="8b0c5d9a24"><path d="M 0.507812 0.0117188 L 116.492188 0.0117188 L 116.492188 115.996094 L 0.507812 115.996094 Z M 0.507812 0.0117188 " clip-rule="nonzero"/></clipPath><clipPath id="68a561ba99"><rect x="0" width="117" y="0" height="116"/></clipPath><clipPath id="c96e790f54"><rect x="0" width="90" y="0" height="85"/></clipPath></defs><g clip-path="url(#acfac15b02)"><g transform="matrix(1, 0, 0, 1, 9, 9)"><g clip-path="url(#68a561ba99)"><g clip-path="url(#8b0c5d9a24)"><path fill="#01b47d" d="M 0.507812 0.0117188 L 116.492188 0.0117188 L 116.492188 115.996094 L 0.507812 115.996094 Z M 0.507812 0.0117188 " fill-opacity="1" fill-rule="nonzero"/></g></g></g></g><g transform="matrix(1, 0, 0, 1, 23, 25)"><g clip-path="url(#c96e790f54)"><g fill="#ffffff" fill-opacity="1"><g transform="translate(0.722797, 66.567531)"><g><path d="M 4.109375 -29.828125 C 4.617188 -33.410156 5.039062 -35.789062 5.375 -36.96875 C 5.769531 -38.53125 6.414062 -39.675781 7.3125 -40.40625 C 8.039062 -40.96875 9.160156 -41.332031 10.671875 -41.5 C 11.285156 -41.613281 12.109375 -41.671875 13.140625 -41.671875 C 14.179688 -41.671875 15.457031 -41.671875 16.96875 -41.671875 L 48.140625 -41.671875 C 47.640625 -37.859375 47.164062 -35.3125 46.71875 -34.03125 C 46.207031 -32.457031 45.363281 -31.363281 44.1875 -30.75 C 43.851562 -30.582031 43.472656 -30.457031 43.046875 -30.375 C 42.628906 -30.289062 42.113281 -30.191406 41.5 -30.078125 C 40.488281 -29.910156 38.613281 -29.828125 35.875 -29.828125 L 19.40625 -29.828125 C 18.84375 -29.828125 18.351562 -29.828125 17.9375 -29.828125 C 17.519531 -29.828125 17.226562 -29.796875 17.0625 -29.734375 C 16.664062 -29.734375 16.382812 -29.597656 16.21875 -29.328125 C 16.101562 -29.210938 15.988281 -28.957031 15.875 -28.5625 C 15.875 -28.34375 15.789062 -27.753906 15.625 -26.796875 L 34.109375 -26.796875 C 35.785156 -26.796875 37.171875 -26.796875 38.265625 -26.796875 C 39.359375 -26.796875 40.15625 -26.742188 40.65625 -26.640625 C 42.457031 -26.460938 43.664062 -26.007812 44.28125 -25.28125 C 44.832031 -24.664062 45.109375 -23.578125 45.109375 -22.015625 L 45.109375 -21.515625 C 45.109375 -21.003906 45.050781 -20.203125 44.9375 -19.109375 C 44.832031 -18.015625 44.664062 -16.628906 44.4375 -14.953125 L 44.03125 -11.84375 C 43.800781 -10 43.5625 -8.472656 43.3125 -7.265625 C 43.0625 -6.066406 42.851562 -5.15625 42.6875 -4.53125 C 42.34375 -3.351562 41.945312 -2.488281 41.5 -1.9375 C 40.832031 -1.257812 39.878906 -0.753906 38.640625 -0.421875 C 38.085938 -0.367188 37.109375 -0.296875 35.703125 -0.203125 C 34.304688 -0.117188 32.539062 -0.078125 30.40625 -0.078125 L 11.9375 -0.078125 C 9.75 -0.078125 7.984375 -0.117188 6.640625 -0.203125 C 5.296875 -0.296875 4.316406 -0.367188 3.703125 -0.421875 C 2.628906 -0.753906 1.867188 -1.203125 1.421875 -1.765625 C 1.035156 -2.378906 0.84375 -3.332031 0.84375 -4.625 C 0.84375 -5.738281 1.09375 -8.144531 1.59375 -11.84375 L 29.234375 -11.84375 C 29.742188 -11.84375 30.164062 -11.859375 30.5 -11.890625 C 30.832031 -11.921875 31.054688 -11.9375 31.171875 -11.9375 C 31.453125 -11.988281 31.703125 -12.125 31.921875 -12.34375 C 32.148438 -12.6875 32.265625 -13.023438 32.265625 -13.359375 C 32.378906 -13.691406 32.460938 -14.222656 32.515625 -14.953125 L 11.9375 -14.953125 C 10.8125 -14.953125 9.828125 -14.960938 8.984375 -14.984375 C 8.148438 -15.015625 7.476562 -15.0625 6.96875 -15.125 C 5.40625 -15.289062 4.257812 -15.679688 3.53125 -16.296875 C 2.96875 -16.972656 2.6875 -17.925781 2.6875 -19.15625 L 2.6875 -20.15625 C 2.800781 -20.71875 2.941406 -21.546875 3.109375 -22.640625 C 3.273438 -23.734375 3.472656 -25.117188 3.703125 -26.796875 Z M 4.109375 -29.828125 "/></g></g></g><g fill="#ffffff" fill-opacity="1"><g transform="translate(39.860963, 66.567531)"><g><path d="M 11.515625 5.296875 C 11.003906 8.878906 10.582031 11.257812 10.25 12.4375 C 9.914062 13.894531 9.351562 14.984375 8.5625 15.703125 C 7.894531 16.378906 6.722656 16.800781 5.046875 16.96875 C 3.972656 17.132812 1.59375 17.21875 -2.09375 17.21875 L 4.03125 -26.640625 L 4.453125 -29.734375 C 4.734375 -31.535156 4.957031 -33.019531 5.125 -34.1875 C 5.289062 -35.363281 5.429688 -36.234375 5.546875 -36.796875 C 6.046875 -38.585938 6.71875 -39.765625 7.5625 -40.328125 C 8.226562 -40.828125 9.179688 -41.160156 10.421875 -41.328125 C 11.703125 -41.503906 14.191406 -41.59375 17.890625 -41.59375 L 36.71875 -41.59375 C 38.675781 -41.59375 40.285156 -41.5625 41.546875 -41.5 C 42.804688 -41.445312 43.71875 -41.363281 44.28125 -41.25 C 45.457031 -41.082031 46.296875 -40.71875 46.796875 -40.15625 C 47.359375 -39.539062 47.640625 -38.503906 47.640625 -37.046875 C 47.640625 -36.828125 47.640625 -36.5625 47.640625 -36.25 C 47.640625 -35.945312 47.609375 -35.597656 47.546875 -35.203125 C 47.441406 -34.191406 47.191406 -32.367188 46.796875 -29.734375 L 44.28125 -11.765625 C 44.050781 -10.023438 43.851562 -8.59375 43.6875 -7.46875 C 43.519531 -6.351562 43.351562 -5.515625 43.1875 -4.953125 C 42.851562 -3.492188 42.320312 -2.40625 41.59375 -1.6875 C 40.863281 -0.957031 39.828125 -0.476562 38.484375 -0.25 C 37.304688 -0.0820312 35.09375 0 31.84375 0 L 12.265625 0 Z M 29.484375 -11.765625 C 29.929688 -11.765625 30.296875 -11.773438 30.578125 -11.796875 C 30.859375 -11.828125 31.082031 -11.84375 31.25 -11.84375 C 31.695312 -12.007812 31.976562 -12.148438 32.09375 -12.265625 C 32.320312 -12.546875 32.460938 -12.851562 32.515625 -13.1875 C 32.628906 -13.582031 32.710938 -14.144531 32.765625 -14.875 L 34.859375 -29.734375 L 19.828125 -29.734375 C 19.265625 -29.734375 18.800781 -29.734375 18.4375 -29.734375 C 18.070312 -29.734375 17.804688 -29.707031 17.640625 -29.65625 C 17.359375 -29.65625 17.109375 -29.546875 16.890625 -29.328125 C 16.722656 -29.148438 16.554688 -28.8125 16.390625 -28.3125 C 16.328125 -28.195312 16.265625 -28 16.203125 -27.71875 C 16.148438 -27.445312 16.070312 -27.085938 15.96875 -26.640625 L 13.953125 -11.84375 L 13.953125 -11.765625 Z M 29.484375 -11.765625 "/></g></g></g></g></g></svg>