<svg xmlns="http://www.w3.org/2000/svg" xmlns:xlink="http://www.w3.org/1999/xlink" width="400" zoomAndPan="magnify" viewBox="0 0 300 74.999997" height="100" preserveAspectRatio="xMidYMid meet" version="1.0"><defs><g/><clipPath id="3d9d0c2984"><path d="M 7.5 1.664062 L 79.167969 1.664062 L 79.167969 73.335938 L 7.5 73.335938 Z M 7.5 1.664062 " clip-rule="nonzero"/></clipPath><clipPath id="bf5e8c02ff"><path d="M 0.5 0.664062 L 72.167969 0.664062 L 72.167969 72.335938 L 0.5 72.335938 Z M 0.5 0.664062 " clip-rule="nonzero"/></clipPath><clipPath id="e138ad1f42"><rect x="0" width="73" y="0" height="73"/></clipPath><clipPath id="88ed5b79e4"><rect x="0" width="199" y="0" height="34"/></clipPath><clipPath id="091b93945c"><path d="M 0.078125 14 L 31 14 L 31 41 L 0.078125 41 Z M 0.078125 14 " clip-rule="nonzero"/></clipPath><clipPath id="30c125526c"><path d="M 23 14 L 54 14 L 54 51.601562 L 23 51.601562 Z M 23 14 " clip-rule="nonzero"/></clipPath><clipPath id="ee96faeabf"><rect x="0" width="56" y="0" height="52"/></clipPath></defs><g clip-path="url(#3d9d0c2984)"><g transform="matrix(1, 0, 0, 1, 7, 1)"><g clip-path="url(#e138ad1f42)"><g clip-path="url(#bf5e8c02ff)"><path fill="#01b47d" d="M 0.5 0.664062 L 72.167969 0.664062 L 72.167969 72.335938 L 0.5 72.335938 Z M 0.5 0.664062 " fill-opacity="1" fill-rule="nonzero"/></g></g></g></g><g transform="matrix(1, 0, 0, 1, 92, 21)"><g clip-path="url(#88ed5b79e4)"><g fill="#1d1d1b" fill-opacity="1"><g transform="translate(1.024143, 25.569998)"><g><path d="M 1.609375 -11.640625 C 1.804688 -13.066406 1.96875 -13.984375 2.09375 -14.390625 C 2.269531 -15.046875 2.523438 -15.5 2.859375 -15.75 C 3.140625 -15.96875 3.578125 -16.109375 4.171875 -16.171875 C 4.410156 -16.210938 4.726562 -16.234375 5.125 -16.234375 C 5.53125 -16.234375 6.03125 -16.234375 6.625 -16.234375 L 18.796875 -16.234375 C 18.703125 -15.492188 18.601562 -14.875 18.5 -14.375 C 18.40625 -13.882812 18.316406 -13.519531 18.234375 -13.28125 C 18.035156 -12.644531 17.707031 -12.207031 17.25 -11.96875 C 17.113281 -11.90625 16.960938 -11.859375 16.796875 -11.828125 C 16.640625 -11.796875 16.441406 -11.753906 16.203125 -11.703125 C 16.003906 -11.679688 15.71875 -11.664062 15.34375 -11.65625 C 14.976562 -11.644531 14.53125 -11.640625 14 -11.640625 L 7.578125 -11.640625 C 7.359375 -11.640625 7.164062 -11.640625 7 -11.640625 C 6.832031 -11.640625 6.71875 -11.628906 6.65625 -11.609375 C 6.5 -11.566406 6.390625 -11.5 6.328125 -11.40625 C 6.285156 -11.363281 6.242188 -11.269531 6.203125 -11.125 C 6.203125 -11.03125 6.164062 -10.796875 6.09375 -10.421875 L 13.3125 -10.421875 C 13.96875 -10.421875 14.507812 -10.421875 14.9375 -10.421875 C 15.363281 -10.421875 15.675781 -10.398438 15.875 -10.359375 C 16.59375 -10.296875 17.0625 -10.125 17.28125 -9.84375 C 17.5 -9.625 17.609375 -9.195312 17.609375 -8.5625 L 17.609375 -8.359375 C 17.609375 -8.160156 17.585938 -7.847656 17.546875 -7.421875 C 17.503906 -6.992188 17.4375 -6.457031 17.34375 -5.8125 L 17.1875 -4.625 C 17.09375 -3.90625 17 -3.300781 16.90625 -2.8125 C 16.8125 -2.332031 16.726562 -1.972656 16.65625 -1.734375 C 16.53125 -1.296875 16.378906 -0.96875 16.203125 -0.75 C 15.941406 -0.445312 15.570312 -0.25 15.09375 -0.15625 C 14.875 -0.113281 14.488281 -0.078125 13.9375 -0.046875 C 13.394531 -0.015625 12.707031 0 11.875 0 L 4.65625 0 C 3.800781 0 3.109375 -0.015625 2.578125 -0.046875 C 2.054688 -0.078125 1.675781 -0.113281 1.4375 -0.15625 C 1.050781 -0.269531 0.757812 -0.4375 0.5625 -0.65625 C 0.40625 -0.894531 0.328125 -1.265625 0.328125 -1.765625 C 0.328125 -2.222656 0.425781 -3.175781 0.625 -4.625 L 12.171875 -4.625 C 12.234375 -4.664062 12.289062 -4.695312 12.34375 -4.71875 C 12.40625 -4.738281 12.445312 -4.757812 12.46875 -4.78125 C 12.550781 -4.914062 12.59375 -5.050781 12.59375 -5.1875 C 12.632812 -5.3125 12.664062 -5.519531 12.6875 -5.8125 L 4.65625 -5.8125 C 4.21875 -5.8125 3.832031 -5.816406 3.5 -5.828125 C 3.175781 -5.835938 2.914062 -5.851562 2.71875 -5.875 C 2.101562 -5.9375 1.65625 -6.085938 1.375 -6.328125 C 1.15625 -6.585938 1.046875 -6.957031 1.046875 -7.4375 L 1.046875 -7.84375 C 1.085938 -8.082031 1.140625 -8.414062 1.203125 -8.84375 C 1.273438 -9.269531 1.351562 -9.796875 1.4375 -10.421875 Z M 1.609375 -11.640625 "/></g></g></g><g fill="#1d1d1b" fill-opacity="1"><g transform="translate(19.647171, 25.569998)"><g><path d="M 7.546875 -22.953125 C 8.816406 -22.953125 9.691406 -22.921875 10.171875 -22.859375 C 11.066406 -22.796875 11.613281 -22.535156 11.8125 -22.078125 C 11.894531 -21.898438 11.9375 -21.613281 11.9375 -21.21875 C 11.9375 -21.132812 11.9375 -21.03125 11.9375 -20.90625 C 11.9375 -20.789062 11.914062 -20.65625 11.875 -20.5 C 11.875 -20.21875 11.773438 -19.492188 11.578125 -18.328125 L 11.28125 -16.234375 L 18.5 -16.234375 C 18.300781 -14.765625 18.132812 -13.789062 18 -13.3125 C 17.851562 -12.789062 17.625 -12.398438 17.3125 -12.140625 C 17.007812 -11.921875 16.53125 -11.765625 15.875 -11.671875 C 15.65625 -11.648438 15.328125 -11.632812 14.890625 -11.625 C 14.453125 -11.613281 13.882812 -11.609375 13.1875 -11.609375 L 10.625 -11.609375 L 10.46875 -10.421875 L 9.8125 -5.8125 L 9.640625 -4.59375 L 16.859375 -4.59375 C 16.765625 -3.914062 16.6875 -3.359375 16.625 -2.921875 C 16.5625 -2.484375 16.5 -2.144531 16.4375 -1.90625 C 16.257812 -1.289062 16.039062 -0.851562 15.78125 -0.59375 C 15.488281 -0.351562 15.003906 -0.175781 14.328125 -0.0625 C 14.109375 -0.0390625 13.785156 -0.0234375 13.359375 -0.015625 C 12.929688 -0.00390625 12.40625 0 11.78125 0 L 8.796875 0 C 8.222656 0 7.738281 -0.00390625 7.34375 -0.015625 C 6.945312 -0.0234375 6.628906 -0.03125 6.390625 -0.03125 C 5.566406 -0.113281 5.03125 -0.332031 4.78125 -0.6875 C 4.65625 -0.925781 4.59375 -1.242188 4.59375 -1.640625 L 4.59375 -2.125 C 4.65625 -2.5625 4.785156 -3.382812 4.984375 -4.59375 L 5.15625 -5.8125 L 5.8125 -10.421875 L 5.96875 -11.609375 L 1.3125 -11.609375 C 1.394531 -12.203125 1.46875 -12.691406 1.53125 -13.078125 C 1.601562 -13.472656 1.648438 -13.769531 1.671875 -13.96875 C 1.867188 -14.800781 2.109375 -15.359375 2.390625 -15.640625 C 2.566406 -15.773438 2.769531 -15.890625 3 -15.984375 C 3.226562 -16.085938 3.507812 -16.148438 3.84375 -16.171875 C 4.0625 -16.210938 4.34375 -16.234375 4.6875 -16.234375 C 5.039062 -16.234375 5.457031 -16.234375 5.9375 -16.234375 L 6.625 -16.234375 Z M 7.546875 -22.953125 "/></g></g></g><g fill="#1d1d1b" fill-opacity="1"><g transform="translate(37.975109, 25.569998)"><g><path d="M 14.953125 -16.265625 C 15.910156 -16.265625 16.585938 -16.234375 16.984375 -16.171875 C 17.460938 -16.109375 17.789062 -16 17.96875 -15.84375 C 18.300781 -15.625 18.46875 -15.164062 18.46875 -14.46875 C 18.46875 -14.394531 18.46875 -14.328125 18.46875 -14.265625 C 18.46875 -14.203125 18.457031 -14.113281 18.4375 -14 C 18.4375 -13.800781 18.410156 -13.503906 18.359375 -13.109375 C 18.316406 -12.722656 18.253906 -12.234375 18.171875 -11.640625 L 17.640625 -7.96875 L 17.1875 -4.625 C 17.09375 -3.832031 17 -3.191406 16.90625 -2.703125 C 16.8125 -2.210938 16.71875 -1.847656 16.625 -1.609375 C 16.5 -1.148438 16.28125 -0.800781 15.96875 -0.5625 C 15.726562 -0.382812 15.367188 -0.238281 14.890625 -0.125 C 14.671875 -0.101562 14.296875 -0.078125 13.765625 -0.046875 C 13.242188 -0.015625 12.566406 0 11.734375 0 L 4.625 0 C 3.832031 0 3.1875 -0.015625 2.6875 -0.046875 C 2.1875 -0.078125 1.816406 -0.101562 1.578125 -0.125 C 1.117188 -0.238281 0.789062 -0.40625 0.59375 -0.625 C 0.414062 -0.863281 0.328125 -1.242188 0.328125 -1.765625 L 0.328125 -1.96875 C 0.367188 -2.425781 0.46875 -3.3125 0.625 -4.625 L 0.8125 -5.84375 C 0.90625 -6.425781 0.984375 -6.914062 1.046875 -7.3125 C 1.109375 -7.707031 1.15625 -8.003906 1.1875 -8.203125 C 1.332031 -8.960938 1.550781 -9.488281 1.84375 -9.78125 C 2.144531 -10.082031 2.566406 -10.265625 3.109375 -10.328125 C 3.566406 -10.390625 4.410156 -10.421875 5.640625 -10.421875 L 12.5 -10.421875 C 12.625 -10.421875 12.734375 -10.425781 12.828125 -10.4375 C 12.929688 -10.457031 12.992188 -10.46875 13.015625 -10.46875 C 13.128906 -10.488281 13.226562 -10.539062 13.3125 -10.625 C 13.375 -10.6875 13.40625 -10.785156 13.40625 -10.921875 C 13.457031 -11.054688 13.492188 -11.296875 13.515625 -11.640625 L 6.296875 -11.640625 C 5.703125 -11.640625 5.203125 -11.644531 4.796875 -11.65625 C 4.398438 -11.664062 4.101562 -11.679688 3.90625 -11.703125 C 3.332031 -11.796875 2.925781 -11.992188 2.6875 -12.296875 C 2.488281 -12.609375 2.359375 -13.113281 2.296875 -13.8125 C 2.296875 -14.007812 2.289062 -14.269531 2.28125 -14.59375 C 2.269531 -14.925781 2.265625 -15.296875 2.265625 -15.703125 L 2.265625 -16.265625 Z M 6.234375 -5.84375 C 5.953125 -5.84375 5.785156 -5.832031 5.734375 -5.8125 C 5.671875 -5.8125 5.597656 -5.765625 5.515625 -5.671875 C 5.460938 -5.628906 5.414062 -5.46875 5.375 -5.1875 C 5.375 -5.070312 5.34375 -4.882812 5.28125 -4.625 L 11.703125 -4.625 C 11.835938 -4.625 11.953125 -4.628906 12.046875 -4.640625 C 12.148438 -4.648438 12.210938 -4.65625 12.234375 -4.65625 C 12.367188 -4.675781 12.445312 -4.71875 12.46875 -4.78125 C 12.507812 -4.832031 12.550781 -4.941406 12.59375 -5.109375 C 12.632812 -5.242188 12.664062 -5.488281 12.6875 -5.84375 Z M 6.234375 -5.84375 "/></g></g></g><g fill="#1d1d1b" fill-opacity="1"><g transform="translate(56.729265, 25.569998)"><g><path d="M 14.4375 -18.328125 C 14.625 -19.734375 14.785156 -20.664062 14.921875 -21.125 C 15.097656 -21.707031 15.316406 -22.125 15.578125 -22.375 C 15.910156 -22.65625 16.367188 -22.828125 16.953125 -22.890625 C 17.191406 -22.929688 17.539062 -22.953125 18 -22.953125 C 18.457031 -22.953125 19.039062 -22.953125 19.75 -22.953125 L 17.34375 -5.84375 L 17.1875 -4.625 C 17.09375 -3.945312 17.015625 -3.378906 16.953125 -2.921875 C 16.890625 -2.460938 16.828125 -2.125 16.765625 -1.90625 C 16.585938 -1.226562 16.320312 -0.753906 15.96875 -0.484375 C 15.707031 -0.316406 15.335938 -0.1875 14.859375 -0.09375 C 14.398438 -0.03125 13.425781 0 11.9375 0 L 4.59375 0 C 3.84375 0 3.222656 -0.015625 2.734375 -0.046875 C 2.242188 -0.078125 1.878906 -0.101562 1.640625 -0.125 C 1.203125 -0.21875 0.875 -0.375 0.65625 -0.59375 C 0.4375 -0.875 0.328125 -1.265625 0.328125 -1.765625 C 0.328125 -1.878906 0.332031 -1.992188 0.34375 -2.109375 C 0.351562 -2.234375 0.359375 -2.363281 0.359375 -2.5 C 0.398438 -2.6875 0.441406 -2.957031 0.484375 -3.3125 C 0.535156 -3.664062 0.59375 -4.101562 0.65625 -4.625 C 0.695312 -5.019531 0.757812 -5.503906 0.84375 -6.078125 C 0.9375 -6.660156 1.023438 -7.347656 1.109375 -8.140625 C 1.222656 -8.921875 1.320312 -9.597656 1.40625 -10.171875 C 1.5 -10.753906 1.578125 -11.242188 1.640625 -11.640625 C 1.742188 -12.335938 1.828125 -12.90625 1.890625 -13.34375 C 1.960938 -13.78125 2.019531 -14.109375 2.0625 -14.328125 C 2.238281 -14.941406 2.445312 -15.367188 2.6875 -15.609375 C 2.96875 -15.890625 3.375 -16.066406 3.90625 -16.140625 C 4.144531 -16.179688 4.484375 -16.210938 4.921875 -16.234375 C 5.359375 -16.253906 5.882812 -16.265625 6.5 -16.265625 L 14.140625 -16.265625 Z M 7.40625 -11.640625 C 7.257812 -11.640625 7.125 -11.640625 7 -11.640625 C 6.882812 -11.640625 6.789062 -11.628906 6.71875 -11.609375 C 6.570312 -11.609375 6.460938 -11.554688 6.390625 -11.453125 C 6.347656 -11.398438 6.296875 -11.273438 6.234375 -11.078125 C 6.234375 -10.972656 6.203125 -10.753906 6.140625 -10.421875 L 5.3125 -4.625 L 11.1875 -4.625 C 11.425781 -4.625 11.609375 -4.628906 11.734375 -4.640625 C 11.867188 -4.648438 11.96875 -4.65625 12.03125 -4.65625 C 12.1875 -4.695312 12.285156 -4.738281 12.328125 -4.78125 C 12.441406 -4.851562 12.507812 -4.988281 12.53125 -5.1875 C 12.570312 -5.25 12.601562 -5.332031 12.625 -5.4375 C 12.644531 -5.550781 12.664062 -5.6875 12.6875 -5.84375 L 13.484375 -11.640625 Z M 7.40625 -11.640625 "/></g></g></g><g fill="#1d1d1b" fill-opacity="1"><g transform="translate(75.778509, 25.569998)"><g><path d="M 8.203125 -22.953125 L 7.4375 -17.484375 L 2.78125 -17.484375 L 2.890625 -18.359375 C 2.992188 -18.992188 3.078125 -19.519531 3.140625 -19.9375 C 3.210938 -20.351562 3.269531 -20.660156 3.3125 -20.859375 C 3.46875 -21.554688 3.6875 -22.046875 3.96875 -22.328125 C 4.25 -22.617188 4.65625 -22.796875 5.1875 -22.859375 C 5.644531 -22.921875 6.648438 -22.953125 8.203125 -22.953125 Z M 2.625 -16.265625 L 7.28125 -16.265625 L 6.328125 -9.640625 L 5.640625 -4.59375 C 5.460938 -3.457031 5.332031 -2.679688 5.25 -2.265625 C 5.15625 -1.710938 5 -1.273438 4.78125 -0.953125 C 4.519531 -0.554688 4.082031 -0.289062 3.46875 -0.15625 C 3.257812 -0.113281 2.890625 -0.078125 2.359375 -0.046875 C 1.835938 -0.015625 1.160156 0 0.328125 0 L 1.515625 -8.328125 Z M 2.625 -16.265625 "/></g></g></g><g fill="#1d1d1b" fill-opacity="1"><g transform="translate(83.319518, 25.569998)"><g><path d="M 2.265625 -16.265625 C 3.722656 -16.265625 4.660156 -16.234375 5.078125 -16.171875 C 5.753906 -16.109375 6.191406 -15.910156 6.390625 -15.578125 C 6.546875 -15.398438 6.625 -15.070312 6.625 -14.59375 C 6.625 -14.507812 6.625 -14.40625 6.625 -14.28125 C 6.625 -14.164062 6.601562 -14.039062 6.5625 -13.90625 C 6.5625 -13.769531 6.535156 -13.515625 6.484375 -13.140625 C 6.441406 -12.773438 6.378906 -12.273438 6.296875 -11.640625 L 5.484375 -5.8125 C 5.453125 -5.519531 5.414062 -5.300781 5.375 -5.15625 C 5.375 -5.082031 5.378906 -5.019531 5.390625 -4.96875 C 5.398438 -4.914062 5.40625 -4.867188 5.40625 -4.828125 C 5.457031 -4.796875 5.5 -4.769531 5.53125 -4.75 C 5.5625 -4.726562 5.597656 -4.695312 5.640625 -4.65625 C 5.722656 -4.632812 6 -4.625 6.46875 -4.625 L 12.53125 -4.625 L 13.515625 -11.640625 L 14.171875 -16.265625 C 15.785156 -16.265625 16.78125 -16.222656 17.15625 -16.140625 C 17.71875 -16.066406 18.085938 -15.859375 18.265625 -15.515625 C 18.398438 -15.296875 18.46875 -14.945312 18.46875 -14.46875 L 18.46875 -14.03125 C 18.445312 -13.664062 18.347656 -12.867188 18.171875 -11.640625 L 17.1875 -4.625 C 17.125 -4.03125 17.054688 -3.535156 16.984375 -3.140625 C 16.921875 -2.753906 16.867188 -2.453125 16.828125 -2.234375 C 16.753906 -1.921875 16.675781 -1.648438 16.59375 -1.421875 C 16.507812 -1.191406 16.410156 -1.003906 16.296875 -0.859375 C 16.054688 -0.503906 15.609375 -0.257812 14.953125 -0.125 C 14.734375 -0.101562 14.425781 -0.078125 14.03125 -0.046875 C 13.644531 -0.015625 13.164062 0 12.59375 0 L 3.9375 0 C 3.382812 0 2.914062 -0.015625 2.53125 -0.046875 C 2.15625 -0.078125 1.859375 -0.101562 1.640625 -0.125 C 1.066406 -0.21875 0.679688 -0.4375 0.484375 -0.78125 C 0.378906 -1.070312 0.328125 -1.398438 0.328125 -1.765625 C 0.328125 -1.878906 0.332031 -1.988281 0.34375 -2.09375 C 0.351562 -2.207031 0.359375 -2.316406 0.359375 -2.421875 C 0.398438 -2.859375 0.5 -3.59375 0.65625 -4.625 C 0.71875 -5.0625 0.789062 -5.59375 0.875 -6.21875 C 0.96875 -6.84375 1.070312 -7.554688 1.1875 -8.359375 C 1.3125 -9.191406 1.410156 -9.875 1.484375 -10.40625 C 1.566406 -10.945312 1.617188 -11.359375 1.640625 -11.640625 Z M 2.265625 -16.265625 "/></g></g></g><g fill="#1d1d1b" fill-opacity="1"><g transform="translate(102.073673, 25.569998)"><g><path d="M 1.96875 -11.671875 C 2.070312 -12.398438 2.15625 -13.003906 2.21875 -13.484375 C 2.289062 -13.960938 2.359375 -14.3125 2.421875 -14.53125 C 2.617188 -15.164062 2.875 -15.59375 3.1875 -15.8125 C 3.488281 -16.03125 3.945312 -16.171875 4.5625 -16.234375 C 4.757812 -16.253906 5 -16.265625 5.28125 -16.265625 C 5.5625 -16.265625 5.890625 -16.265625 6.265625 -16.265625 L 15.484375 -16.265625 C 15.921875 -16.265625 16.285156 -16.265625 16.578125 -16.265625 C 16.867188 -16.265625 17.101562 -16.242188 17.28125 -16.203125 C 17.914062 -16.140625 18.34375 -15.929688 18.5625 -15.578125 C 18.71875 -15.359375 18.796875 -14.988281 18.796875 -14.46875 C 18.796875 -14.394531 18.796875 -14.328125 18.796875 -14.265625 C 18.796875 -14.203125 18.785156 -14.125 18.765625 -14.03125 C 18.765625 -13.832031 18.738281 -13.535156 18.6875 -13.140625 C 18.644531 -12.753906 18.582031 -12.265625 18.5 -11.671875 L 18.328125 -10.46875 L 17.671875 -5.84375 L 17.515625 -4.625 C 17.453125 -4.070312 17.382812 -3.601562 17.3125 -3.21875 C 17.25 -2.84375 17.195312 -2.554688 17.15625 -2.359375 C 17.019531 -1.660156 16.820312 -1.144531 16.5625 -0.8125 C 16.300781 -0.46875 15.8125 -0.238281 15.09375 -0.125 C 14.625 -0.0625 13.660156 -0.03125 12.203125 -0.03125 L 12.859375 -4.625 L 13.015625 -5.84375 L 13.671875 -10.46875 L 13.84375 -11.671875 C 13.625 -11.671875 13.4375 -11.671875 13.28125 -11.671875 C 13.125 -11.671875 13.003906 -11.660156 12.921875 -11.640625 C 12.816406 -11.640625 12.707031 -11.585938 12.59375 -11.484375 C 12.570312 -11.460938 12.519531 -11.328125 12.4375 -11.078125 C 12.4375 -10.992188 12.398438 -10.789062 12.328125 -10.46875 L 11.671875 -5.84375 L 11.515625 -4.625 C 11.421875 -3.988281 11.34375 -3.457031 11.28125 -3.03125 C 11.21875 -2.601562 11.148438 -2.269531 11.078125 -2.03125 C 10.953125 -1.4375 10.757812 -1.007812 10.5 -0.75 C 10.226562 -0.488281 9.832031 -0.289062 9.3125 -0.15625 C 9.09375 -0.132812 8.722656 -0.109375 8.203125 -0.078125 C 7.691406 -0.046875 7.023438 -0.03125 6.203125 -0.03125 L 6.859375 -4.625 L 7.015625 -5.84375 L 7.671875 -10.46875 L 7.84375 -11.671875 C 7.445312 -11.671875 7.203125 -11.660156 7.109375 -11.640625 C 6.960938 -11.640625 6.851562 -11.609375 6.78125 -11.546875 C 6.757812 -11.523438 6.726562 -11.484375 6.6875 -11.421875 C 6.644531 -11.367188 6.601562 -11.289062 6.5625 -11.1875 C 6.5625 -11.09375 6.53125 -10.851562 6.46875 -10.46875 L 5.8125 -5.84375 L 5.640625 -4.625 C 5.441406 -3.25 5.28125 -2.332031 5.15625 -1.875 C 5 -1.238281 4.734375 -0.789062 4.359375 -0.53125 C 4.078125 -0.3125 3.640625 -0.164062 3.046875 -0.09375 C 2.828125 -0.0703125 2.492188 -0.0546875 2.046875 -0.046875 C 1.597656 -0.0351562 1.023438 -0.03125 0.328125 -0.03125 L 0.984375 -4.625 L 1.140625 -5.84375 L 1.796875 -10.46875 Z M 1.96875 -11.671875 "/></g></g></g><g fill="#1d1d1b" fill-opacity="1"><g transform="translate(121.155721, 25.569998)"><g><path d="M 4.5 2.0625 C 4.300781 3.46875 4.132812 4.398438 4 4.859375 C 3.863281 5.421875 3.644531 5.847656 3.34375 6.140625 C 3.082031 6.398438 2.625 6.5625 1.96875 6.625 C 1.550781 6.6875 0.625 6.71875 -0.8125 6.71875 L 1.578125 -10.390625 L 1.734375 -11.609375 C 1.847656 -12.304688 1.9375 -12.882812 2 -13.34375 C 2.0625 -13.800781 2.117188 -14.140625 2.171875 -14.359375 C 2.359375 -15.066406 2.617188 -15.53125 2.953125 -15.75 C 3.210938 -15.9375 3.582031 -16.066406 4.0625 -16.140625 C 4.570312 -16.203125 5.546875 -16.234375 6.984375 -16.234375 L 14.328125 -16.234375 C 15.097656 -16.234375 15.726562 -16.222656 16.21875 -16.203125 C 16.707031 -16.179688 17.0625 -16.148438 17.28125 -16.109375 C 17.738281 -16.035156 18.066406 -15.890625 18.265625 -15.671875 C 18.484375 -15.429688 18.59375 -15.03125 18.59375 -14.46875 C 18.59375 -14.375 18.59375 -14.265625 18.59375 -14.140625 C 18.59375 -14.023438 18.582031 -13.890625 18.5625 -13.734375 C 18.519531 -13.347656 18.421875 -12.640625 18.265625 -11.609375 L 17.28125 -4.59375 C 17.195312 -3.914062 17.117188 -3.359375 17.046875 -2.921875 C 16.984375 -2.484375 16.921875 -2.15625 16.859375 -1.9375 C 16.722656 -1.363281 16.515625 -0.9375 16.234375 -0.65625 C 15.953125 -0.375 15.546875 -0.1875 15.015625 -0.09375 C 14.554688 -0.03125 13.695312 0 12.4375 0 L 4.78125 0 Z M 11.515625 -4.59375 C 11.691406 -4.59375 11.832031 -4.597656 11.9375 -4.609375 C 12.050781 -4.617188 12.140625 -4.625 12.203125 -4.625 C 12.378906 -4.6875 12.488281 -4.738281 12.53125 -4.78125 C 12.613281 -4.894531 12.664062 -5.019531 12.6875 -5.15625 C 12.738281 -5.300781 12.773438 -5.519531 12.796875 -5.8125 L 13.609375 -11.609375 L 7.734375 -11.609375 C 7.515625 -11.609375 7.332031 -11.609375 7.1875 -11.609375 C 7.050781 -11.609375 6.953125 -11.597656 6.890625 -11.578125 C 6.773438 -11.578125 6.675781 -11.535156 6.59375 -11.453125 C 6.53125 -11.378906 6.460938 -11.242188 6.390625 -11.046875 C 6.367188 -11.003906 6.347656 -10.925781 6.328125 -10.8125 C 6.304688 -10.707031 6.273438 -10.566406 6.234375 -10.390625 L 5.4375 -4.625 L 5.4375 -4.59375 Z M 11.515625 -4.59375 "/></g></g></g><g fill="#1d1d1b" fill-opacity="1"><g transform="translate(140.041034, 25.569998)"><g><path d="M 1.609375 -11.671875 C 1.734375 -12.660156 1.832031 -13.304688 1.90625 -13.609375 C 2.101562 -14.617188 2.363281 -15.285156 2.6875 -15.609375 C 3 -15.941406 3.46875 -16.140625 4.09375 -16.203125 C 4.332031 -16.242188 4.671875 -16.265625 5.109375 -16.265625 C 5.546875 -16.265625 6.09375 -16.265625 6.75 -16.265625 L 14.296875 -16.265625 C 15.109375 -16.265625 15.769531 -16.253906 16.28125 -16.234375 C 16.789062 -16.210938 17.15625 -16.171875 17.375 -16.109375 C 17.769531 -16.035156 18.054688 -15.859375 18.234375 -15.578125 C 18.390625 -15.359375 18.46875 -15 18.46875 -14.5 L 18.46875 -14.171875 C 18.46875 -13.753906 18.367188 -12.921875 18.171875 -11.671875 L 17.1875 -4.65625 C 17.03125 -3.5 16.898438 -2.703125 16.796875 -2.265625 C 16.660156 -1.648438 16.492188 -1.203125 16.296875 -0.921875 C 16.054688 -0.546875 15.617188 -0.289062 14.984375 -0.15625 C 14.765625 -0.132812 14.414062 -0.109375 13.9375 -0.078125 C 13.457031 -0.046875 12.847656 -0.03125 12.109375 -0.03125 L 4.390625 -0.03125 C 3.691406 -0.03125 3.113281 -0.046875 2.65625 -0.078125 C 2.195312 -0.109375 1.847656 -0.132812 1.609375 -0.15625 C 1.128906 -0.25 0.78125 -0.4375 0.5625 -0.71875 C 0.488281 -0.851562 0.429688 -1.007812 0.390625 -1.1875 C 0.347656 -1.375 0.328125 -1.578125 0.328125 -1.796875 L 0.328125 -2.203125 C 0.367188 -2.640625 0.46875 -3.457031 0.625 -4.65625 C 0.75 -5.375 1.078125 -7.710938 1.609375 -11.671875 Z M 7.875 -11.671875 C 7.613281 -11.671875 7.394531 -11.671875 7.21875 -11.671875 C 7.039062 -11.671875 6.910156 -11.660156 6.828125 -11.640625 C 6.609375 -11.597656 6.453125 -11.535156 6.359375 -11.453125 C 6.296875 -11.378906 6.234375 -11.191406 6.171875 -10.890625 C 6.171875 -10.867188 6.164062 -10.816406 6.15625 -10.734375 C 6.144531 -10.660156 6.125 -10.570312 6.09375 -10.46875 L 5.28125 -4.65625 L 12.109375 -4.65625 C 12.253906 -4.695312 12.347656 -4.738281 12.390625 -4.78125 C 12.484375 -4.875 12.53125 -4.972656 12.53125 -5.078125 C 12.570312 -5.148438 12.601562 -5.242188 12.625 -5.359375 C 12.644531 -5.484375 12.664062 -5.644531 12.6875 -5.84375 L 13.515625 -11.671875 Z M 7.875 -11.671875 "/></g></g></g><g fill="#1d1d1b" fill-opacity="1"><g transform="translate(158.795189, 25.569998)"><g><path d="M 1.96875 -11.640625 C 2.164062 -12.890625 2.296875 -13.710938 2.359375 -14.109375 C 2.515625 -14.804688 2.734375 -15.296875 3.015625 -15.578125 C 3.273438 -15.878906 3.679688 -16.066406 4.234375 -16.140625 C 4.691406 -16.203125 5.46875 -16.234375 6.5625 -16.234375 L 19.15625 -16.234375 C 19.0625 -15.554688 18.976562 -15 18.90625 -14.5625 C 18.832031 -14.125 18.757812 -13.785156 18.6875 -13.546875 C 18.519531 -12.890625 18.28125 -12.441406 17.96875 -12.203125 C 17.6875 -11.941406 17.195312 -11.773438 16.5 -11.703125 C 16.28125 -11.679688 15.953125 -11.664062 15.515625 -11.65625 C 15.078125 -11.644531 14.507812 -11.640625 13.8125 -11.640625 L 8.234375 -11.640625 C 7.992188 -11.640625 7.789062 -11.640625 7.625 -11.640625 C 7.457031 -11.640625 7.332031 -11.628906 7.25 -11.609375 C 7.113281 -11.609375 6.984375 -11.566406 6.859375 -11.484375 C 6.742188 -11.429688 6.65625 -11.296875 6.59375 -11.078125 C 6.570312 -11.015625 6.550781 -10.914062 6.53125 -10.78125 C 6.507812 -10.65625 6.472656 -10.484375 6.421875 -10.265625 L 5.640625 -4.59375 C 5.484375 -3.363281 5.351562 -2.53125 5.25 -2.09375 C 5.1875 -1.8125 5.109375 -1.554688 5.015625 -1.328125 C 4.929688 -1.097656 4.820312 -0.90625 4.6875 -0.75 C 4.445312 -0.488281 4.109375 -0.289062 3.671875 -0.15625 C 3.453125 -0.113281 3.0625 -0.078125 2.5 -0.046875 C 1.945312 -0.015625 1.222656 0 0.328125 0 Z M 1.96875 -11.640625 "/></g></g></g><g fill="#1d1d1b" fill-opacity="1"><g transform="translate(177.74608, 25.569998)"><g><path d="M 7.546875 -22.953125 C 8.816406 -22.953125 9.691406 -22.921875 10.171875 -22.859375 C 11.066406 -22.796875 11.613281 -22.535156 11.8125 -22.078125 C 11.894531 -21.898438 11.9375 -21.613281 11.9375 -21.21875 C 11.9375 -21.132812 11.9375 -21.03125 11.9375 -20.90625 C 11.9375 -20.789062 11.914062 -20.65625 11.875 -20.5 C 11.875 -20.21875 11.773438 -19.492188 11.578125 -18.328125 L 11.28125 -16.234375 L 18.5 -16.234375 C 18.300781 -14.765625 18.132812 -13.789062 18 -13.3125 C 17.851562 -12.789062 17.625 -12.398438 17.3125 -12.140625 C 17.007812 -11.921875 16.53125 -11.765625 15.875 -11.671875 C 15.65625 -11.648438 15.328125 -11.632812 14.890625 -11.625 C 14.453125 -11.613281 13.882812 -11.609375 13.1875 -11.609375 L 10.625 -11.609375 L 10.46875 -10.421875 L 9.8125 -5.8125 L 9.640625 -4.59375 L 16.859375 -4.59375 C 16.765625 -3.914062 16.6875 -3.359375 16.625 -2.921875 C 16.5625 -2.484375 16.5 -2.144531 16.4375 -1.90625 C 16.257812 -1.289062 16.039062 -0.851562 15.78125 -0.59375 C 15.488281 -0.351562 15.003906 -0.175781 14.328125 -0.0625 C 14.109375 -0.0390625 13.785156 -0.0234375 13.359375 -0.015625 C 12.929688 -0.00390625 12.40625 0 11.78125 0 L 8.796875 0 C 8.222656 0 7.738281 -0.00390625 7.34375 -0.015625 C 6.945312 -0.0234375 6.628906 -0.03125 6.390625 -0.03125 C 5.566406 -0.113281 5.03125 -0.332031 4.78125 -0.6875 C 4.65625 -0.925781 4.59375 -1.242188 4.59375 -1.640625 L 4.59375 -2.125 C 4.65625 -2.5625 4.785156 -3.382812 4.984375 -4.59375 L 5.15625 -5.8125 L 5.8125 -10.421875 L 5.96875 -11.609375 L 1.3125 -11.609375 C 1.394531 -12.203125 1.46875 -12.691406 1.53125 -13.078125 C 1.601562 -13.472656 1.648438 -13.769531 1.671875 -13.96875 C 1.867188 -14.800781 2.109375 -15.359375 2.390625 -15.640625 C 2.566406 -15.773438 2.769531 -15.890625 3 -15.984375 C 3.226562 -16.085938 3.507812 -16.148438 3.84375 -16.171875 C 4.0625 -16.210938 4.34375 -16.234375 4.6875 -16.234375 C 5.039062 -16.234375 5.457031 -16.234375 5.9375 -16.234375 L 6.625 -16.234375 Z M 7.546875 -22.953125 "/></g></g></g></g></g><g transform="matrix(1, 0, 0, 1, 16, 12)"><g clip-path="url(#ee96faeabf)"><g clip-path="url(#091b93945c)"><g fill="#1d1d1b" fill-opacity="1"><g transform="translate(0.283991, 40.678464)"><g><path d="M 2.546875 -18.421875 C 2.859375 -20.640625 3.117188 -22.113281 3.328125 -22.84375 C 3.566406 -23.8125 3.960938 -24.519531 4.515625 -24.96875 C 4.960938 -25.3125 5.65625 -25.535156 6.59375 -25.640625 C 6.96875 -25.710938 7.472656 -25.75 8.109375 -25.75 C 8.753906 -25.75 9.546875 -25.75 10.484375 -25.75 L 29.75 -25.75 C 29.4375 -23.394531 29.140625 -21.816406 28.859375 -21.015625 C 28.546875 -20.046875 28.023438 -19.375 27.296875 -19 C 27.085938 -18.894531 26.851562 -18.816406 26.59375 -18.765625 C 26.34375 -18.710938 26.023438 -18.648438 25.640625 -18.578125 C 25.015625 -18.472656 23.851562 -18.421875 22.15625 -18.421875 L 11.984375 -18.421875 C 11.640625 -18.421875 11.335938 -18.421875 11.078125 -18.421875 C 10.816406 -18.421875 10.632812 -18.40625 10.53125 -18.375 C 10.289062 -18.375 10.117188 -18.285156 10.015625 -18.109375 C 9.953125 -18.046875 9.882812 -17.890625 9.8125 -17.640625 C 9.8125 -17.503906 9.757812 -17.144531 9.65625 -16.5625 L 21.078125 -16.5625 C 22.109375 -16.5625 22.960938 -16.5625 23.640625 -16.5625 C 24.316406 -16.5625 24.8125 -16.523438 25.125 -16.453125 C 26.226562 -16.347656 26.972656 -16.070312 27.359375 -15.625 C 27.703125 -15.238281 27.875 -14.5625 27.875 -13.59375 L 27.875 -13.28125 C 27.875 -12.976562 27.835938 -12.488281 27.765625 -11.8125 C 27.703125 -11.132812 27.597656 -10.273438 27.453125 -9.234375 L 27.203125 -7.3125 C 27.054688 -6.175781 26.90625 -5.234375 26.75 -4.484375 C 26.601562 -3.742188 26.476562 -3.179688 26.375 -2.796875 C 26.164062 -2.078125 25.921875 -1.539062 25.640625 -1.1875 C 25.222656 -0.78125 24.632812 -0.472656 23.875 -0.265625 C 23.53125 -0.222656 22.925781 -0.175781 22.0625 -0.125 C 21.195312 -0.0703125 20.109375 -0.046875 18.796875 -0.046875 L 7.375 -0.046875 C 6.019531 -0.046875 4.925781 -0.0703125 4.09375 -0.125 C 3.269531 -0.175781 2.664062 -0.222656 2.28125 -0.265625 C 1.625 -0.472656 1.15625 -0.75 0.875 -1.09375 C 0.632812 -1.46875 0.515625 -2.054688 0.515625 -2.859375 C 0.515625 -3.546875 0.671875 -5.03125 0.984375 -7.3125 L 18.0625 -7.3125 C 18.375 -7.3125 18.632812 -7.320312 18.84375 -7.34375 C 19.050781 -7.363281 19.1875 -7.375 19.25 -7.375 C 19.425781 -7.40625 19.582031 -7.488281 19.71875 -7.625 C 19.863281 -7.832031 19.9375 -8.039062 19.9375 -8.25 C 20 -8.457031 20.050781 -8.785156 20.09375 -9.234375 L 7.375 -9.234375 C 6.675781 -9.234375 6.066406 -9.242188 5.546875 -9.265625 C 5.035156 -9.285156 4.625 -9.3125 4.3125 -9.34375 C 3.34375 -9.445312 2.632812 -9.6875 2.1875 -10.0625 C 1.832031 -10.476562 1.65625 -11.066406 1.65625 -11.828125 L 1.65625 -12.453125 C 1.726562 -12.804688 1.816406 -13.316406 1.921875 -13.984375 C 2.023438 -14.660156 2.144531 -15.519531 2.28125 -16.5625 Z M 2.546875 -18.421875 "/></g></g></g></g><g clip-path="url(#30c125526c)"><g fill="#1d1d1b" fill-opacity="1"><g transform="translate(24.468205, 40.678464)"><g><path d="M 7.109375 3.265625 C 6.796875 5.484375 6.535156 6.957031 6.328125 7.6875 C 6.117188 8.582031 5.773438 9.253906 5.296875 9.703125 C 4.878906 10.117188 4.148438 10.378906 3.109375 10.484375 C 2.453125 10.585938 0.984375 10.640625 -1.296875 10.640625 L 2.484375 -16.453125 L 2.75 -18.375 C 2.925781 -19.476562 3.066406 -20.394531 3.171875 -21.125 C 3.273438 -21.851562 3.359375 -22.390625 3.421875 -22.734375 C 3.734375 -23.835938 4.148438 -24.566406 4.671875 -24.921875 C 5.085938 -25.222656 5.675781 -25.425781 6.4375 -25.53125 C 7.226562 -25.632812 8.769531 -25.6875 11.0625 -25.6875 L 22.6875 -25.6875 C 23.894531 -25.6875 24.882812 -25.671875 25.65625 -25.640625 C 26.4375 -25.609375 27.003906 -25.554688 27.359375 -25.484375 C 28.078125 -25.378906 28.59375 -25.15625 28.90625 -24.8125 C 29.257812 -24.425781 29.4375 -23.785156 29.4375 -22.890625 C 29.4375 -22.753906 29.4375 -22.585938 29.4375 -22.390625 C 29.4375 -22.203125 29.414062 -21.988281 29.375 -21.75 C 29.3125 -21.125 29.15625 -20 28.90625 -18.375 L 27.359375 -7.265625 C 27.210938 -6.191406 27.085938 -5.304688 26.984375 -4.609375 C 26.878906 -3.921875 26.78125 -3.40625 26.6875 -3.0625 C 26.476562 -2.164062 26.144531 -1.488281 25.6875 -1.03125 C 25.238281 -0.582031 24.597656 -0.289062 23.765625 -0.15625 C 23.046875 -0.0507812 21.679688 0 19.671875 0 L 7.578125 0 Z M 18.21875 -7.265625 C 18.5 -7.265625 18.722656 -7.269531 18.890625 -7.28125 C 19.066406 -7.300781 19.207031 -7.3125 19.3125 -7.3125 C 19.582031 -7.414062 19.753906 -7.503906 19.828125 -7.578125 C 19.960938 -7.753906 20.050781 -7.945312 20.09375 -8.15625 C 20.15625 -8.394531 20.207031 -8.738281 20.25 -9.1875 L 21.546875 -18.375 L 12.25 -18.375 C 11.90625 -18.375 11.617188 -18.375 11.390625 -18.375 C 11.171875 -18.375 11.007812 -18.359375 10.90625 -18.328125 C 10.726562 -18.328125 10.570312 -18.253906 10.4375 -18.109375 C 10.332031 -18.003906 10.226562 -17.800781 10.125 -17.5 C 10.082031 -17.425781 10.046875 -17.300781 10.015625 -17.125 C 9.984375 -16.957031 9.929688 -16.734375 9.859375 -16.453125 L 8.609375 -7.3125 L 8.609375 -7.265625 Z M 18.21875 -7.265625 "/></g></g></g></g></g></g></svg>