<svg xmlns="http://www.w3.org/2000/svg" xmlns:xlink="http://www.w3.org/1999/xlink" width="2400" zoomAndPan="magnify" viewBox="0 0 1800 449.999984" height="600" preserveAspectRatio="xMidYMid meet" version="1.0"><defs><g/><clipPath id="264b56771e"><path d="M 32.585938 6.851562 L 468.882812 6.851562 L 468.882812 443.148438 L 32.585938 443.148438 Z M 32.585938 6.851562 " clip-rule="nonzero"/></clipPath><clipPath id="bbdf16c96d"><path d="M 0.585938 0.851562 L 436.882812 0.851562 L 436.882812 437.148438 L 0.585938 437.148438 Z M 0.585938 0.851562 " clip-rule="nonzero"/></clipPath><clipPath id="269520a60a"><rect x="0" width="437" y="0" height="438"/></clipPath><clipPath id="1c348fde6e"><rect x="0" width="1208" y="0" height="198"/></clipPath><clipPath id="326195091c"><path d="M 141 89 L 329 89 L 329 311.800781 L 141 311.800781 Z M 141 89 " clip-rule="nonzero"/></clipPath><clipPath id="1f8acf9afb"><rect x="0" width="338" y="0" height="312"/></clipPath></defs><g clip-path="url(#264b56771e)"><g transform="matrix(1, 0, 0, 1, 32, 6)"><g clip-path="url(#269520a60a)"><g clip-path="url(#bbdf16c96d)"><path fill="#01b47d" d="M 0.585938 0.851562 L 436.882812 0.851562 L 436.882812 437.148438 L 0.585938 437.148438 Z M 0.585938 0.851562 " fill-opacity="1" fill-rule="nonzero"/></g></g></g></g><g transform="matrix(1, 0, 0, 1, 549, 129)"><g clip-path="url(#1c348fde6e)"><g fill="#1d1d1b" fill-opacity="1"><g transform="translate(4.224125, 151.214846)"><g><path d="M 9.78125 -70.890625 C 10.976562 -79.535156 11.976562 -85.125 12.78125 -87.65625 C 13.84375 -91.644531 15.375 -94.375 17.375 -95.84375 C 19.101562 -97.175781 21.765625 -98.039062 25.359375 -98.4375 C 26.828125 -98.707031 28.789062 -98.84375 31.25 -98.84375 C 33.707031 -98.84375 36.734375 -98.84375 40.328125 -98.84375 L 114.40625 -98.84375 C 113.875 -94.3125 113.304688 -90.546875 112.703125 -87.546875 C 112.109375 -84.554688 111.546875 -82.328125 111.015625 -80.859375 C 109.816406 -77.003906 107.820312 -74.34375 105.03125 -72.875 C 104.226562 -72.476562 103.328125 -72.179688 102.328125 -71.984375 C 101.328125 -71.785156 100.097656 -71.550781 98.640625 -71.28125 C 97.441406 -71.144531 95.707031 -71.046875 93.4375 -70.984375 C 91.175781 -70.921875 88.453125 -70.890625 85.265625 -70.890625 L 46.125 -70.890625 C 44.789062 -70.890625 43.625 -70.890625 42.625 -70.890625 C 41.625 -70.890625 40.925781 -70.820312 40.53125 -70.6875 C 39.601562 -70.414062 38.9375 -70.015625 38.53125 -69.484375 C 38.269531 -69.222656 38.003906 -68.625 37.734375 -67.6875 C 37.734375 -67.15625 37.535156 -65.757812 37.140625 -63.5 L 81.0625 -63.5 C 85.0625 -63.5 88.359375 -63.5 90.953125 -63.5 C 93.546875 -63.5 95.441406 -63.363281 96.640625 -63.09375 C 101.035156 -62.695312 103.898438 -61.632812 105.234375 -59.90625 C 106.554688 -58.570312 107.21875 -55.972656 107.21875 -52.109375 L 107.21875 -50.921875 C 107.21875 -49.722656 107.082031 -47.820312 106.8125 -45.21875 C 106.550781 -42.625 106.15625 -39.332031 105.625 -35.34375 L 104.625 -28.15625 C 104.09375 -23.757812 103.523438 -20.097656 102.921875 -17.171875 C 102.328125 -14.242188 101.832031 -12.046875 101.4375 -10.578125 C 100.632812 -7.921875 99.703125 -5.925781 98.640625 -4.59375 C 97.035156 -2.726562 94.769531 -1.53125 91.84375 -1 C 90.519531 -0.726562 88.191406 -0.492188 84.859375 -0.296875 C 81.535156 -0.0976562 77.34375 0 72.28125 0 L 28.359375 0 C 23.160156 0 18.960938 -0.0976562 15.765625 -0.296875 C 12.578125 -0.492188 10.25 -0.726562 8.78125 -1 C 6.382812 -1.664062 4.585938 -2.664062 3.390625 -4 C 2.460938 -5.457031 2 -7.71875 2 -10.78125 C 2 -13.570312 2.597656 -19.363281 3.796875 -28.15625 L 74.078125 -28.15625 C 74.472656 -28.414062 74.835938 -28.613281 75.171875 -28.75 C 75.503906 -28.882812 75.738281 -29.019531 75.875 -29.15625 C 76.40625 -29.945312 76.671875 -30.742188 76.671875 -31.546875 C 76.941406 -32.347656 77.140625 -33.613281 77.265625 -35.34375 L 28.359375 -35.34375 C 25.691406 -35.34375 23.359375 -35.375 21.359375 -35.4375 C 19.367188 -35.507812 17.773438 -35.609375 16.578125 -35.734375 C 12.847656 -36.140625 10.117188 -37.070312 8.390625 -38.53125 C 7.054688 -40.132812 6.390625 -42.398438 6.390625 -45.328125 L 6.390625 -47.71875 C 6.648438 -49.1875 6.976562 -51.21875 7.375 -53.8125 C 7.78125 -56.40625 8.25 -59.632812 8.78125 -63.5 Z M 9.78125 -70.890625 "/></g></g></g><g fill="#1d1d1b" fill-opacity="1"><g transform="translate(117.594316, 151.214846)"><g><path d="M 45.921875 -139.765625 C 53.640625 -139.765625 58.960938 -139.566406 61.890625 -139.171875 C 67.347656 -138.773438 70.675781 -137.175781 71.875 -134.375 C 72.414062 -133.3125 72.6875 -131.582031 72.6875 -129.1875 C 72.6875 -128.65625 72.6875 -128.019531 72.6875 -127.28125 C 72.6875 -126.550781 72.550781 -125.722656 72.28125 -124.796875 C 72.28125 -123.066406 71.679688 -118.671875 70.484375 -111.609375 L 68.6875 -98.84375 L 112.609375 -98.84375 C 111.410156 -89.914062 110.414062 -83.988281 109.625 -81.0625 C 108.6875 -77.875 107.285156 -75.476562 105.421875 -73.875 C 103.554688 -72.539062 100.628906 -71.609375 96.640625 -71.078125 C 95.304688 -70.953125 93.304688 -70.851562 90.640625 -70.78125 C 87.984375 -70.71875 84.523438 -70.6875 80.265625 -70.6875 L 64.6875 -70.6875 L 63.703125 -63.5 L 59.703125 -35.34375 L 58.703125 -27.953125 L 102.625 -27.953125 C 102.09375 -23.828125 101.628906 -20.429688 101.234375 -17.765625 C 100.835938 -15.109375 100.4375 -13.046875 100.03125 -11.578125 C 98.96875 -7.847656 97.640625 -5.1875 96.046875 -3.59375 C 94.316406 -2.125 91.382812 -1.0625 87.25 -0.40625 C 85.925781 -0.269531 83.960938 -0.164062 81.359375 -0.09375 C 78.765625 -0.03125 75.539062 0 71.6875 0 L 53.515625 0 C 50.054688 0 47.125 -0.03125 44.71875 -0.09375 C 42.320312 -0.164062 40.394531 -0.203125 38.9375 -0.203125 C 33.875 -0.734375 30.613281 -2.0625 29.15625 -4.1875 C 28.351562 -5.65625 27.953125 -7.585938 27.953125 -9.984375 L 27.953125 -12.984375 C 28.347656 -15.640625 29.144531 -20.628906 30.34375 -27.953125 L 31.34375 -35.34375 L 35.34375 -63.5 L 36.34375 -70.6875 L 7.984375 -70.6875 C 8.515625 -74.28125 8.976562 -77.273438 9.375 -79.671875 C 9.78125 -82.066406 10.050781 -83.863281 10.1875 -85.0625 C 11.382812 -90.113281 12.847656 -93.507812 14.578125 -95.25 C 15.640625 -96.039062 16.867188 -96.734375 18.265625 -97.328125 C 19.660156 -97.929688 21.359375 -98.300781 23.359375 -98.4375 C 24.691406 -98.707031 26.421875 -98.84375 28.546875 -98.84375 C 30.679688 -98.84375 33.210938 -98.84375 36.140625 -98.84375 L 40.328125 -98.84375 Z M 45.921875 -139.765625 "/></g></g></g><g fill="#1d1d1b" fill-opacity="1"><g transform="translate(229.168114, 151.214846)"><g><path d="M 91.046875 -99.03125 C 96.910156 -99.03125 101.039062 -98.832031 103.4375 -98.4375 C 106.363281 -98.039062 108.359375 -97.375 109.421875 -96.4375 C 111.421875 -95.101562 112.421875 -92.3125 112.421875 -88.0625 C 112.421875 -87.65625 112.421875 -87.253906 112.421875 -86.859375 C 112.421875 -86.460938 112.351562 -85.929688 112.21875 -85.265625 C 112.21875 -84.066406 112.082031 -82.269531 111.8125 -79.875 C 111.550781 -77.476562 111.15625 -74.484375 110.625 -70.890625 L 107.421875 -48.515625 L 104.625 -28.15625 C 104.09375 -23.363281 103.523438 -19.46875 102.921875 -16.46875 C 102.328125 -13.476562 101.765625 -11.25 101.234375 -9.78125 C 100.429688 -6.988281 99.097656 -4.859375 97.234375 -3.390625 C 95.773438 -2.328125 93.582031 -1.460938 90.65625 -0.796875 C 89.320312 -0.660156 87.054688 -0.492188 83.859375 -0.296875 C 80.660156 -0.0976562 76.535156 0 71.484375 0 L 28.15625 0 C 23.363281 0 19.4375 -0.0976562 16.375 -0.296875 C 13.3125 -0.492188 11.046875 -0.660156 9.578125 -0.796875 C 6.785156 -1.460938 4.789062 -2.460938 3.59375 -3.796875 C 2.53125 -5.253906 2 -7.582031 2 -10.78125 L 2 -11.984375 C 2.257812 -14.773438 2.859375 -20.164062 3.796875 -28.15625 L 4.984375 -35.546875 C 5.523438 -39.140625 5.992188 -42.132812 6.390625 -44.53125 C 6.785156 -46.925781 7.050781 -48.722656 7.1875 -49.921875 C 8.113281 -54.578125 9.445312 -57.769531 11.1875 -59.5 C 13.050781 -61.363281 15.644531 -62.492188 18.96875 -62.890625 C 21.757812 -63.296875 26.882812 -63.5 34.34375 -63.5 L 76.078125 -63.5 C 76.867188 -63.5 77.5625 -63.53125 78.15625 -63.59375 C 78.757812 -63.664062 79.128906 -63.703125 79.265625 -63.703125 C 79.929688 -63.828125 80.53125 -64.15625 81.0625 -64.6875 C 81.46875 -65.09375 81.671875 -65.691406 81.671875 -66.484375 C 81.929688 -67.285156 82.128906 -68.753906 82.265625 -70.890625 L 38.34375 -70.890625 C 34.75 -70.890625 31.71875 -70.921875 29.25 -70.984375 C 26.789062 -71.046875 24.960938 -71.144531 23.765625 -71.28125 C 20.296875 -71.8125 17.832031 -73.007812 16.375 -74.875 C 15.175781 -76.738281 14.378906 -79.800781 13.984375 -84.0625 C 13.984375 -85.257812 13.945312 -86.851562 13.875 -88.84375 C 13.8125 -90.84375 13.78125 -93.109375 13.78125 -95.640625 L 13.78125 -99.03125 Z M 37.9375 -35.546875 C 36.207031 -35.546875 35.207031 -35.476562 34.9375 -35.34375 C 34.539062 -35.34375 34.078125 -35.078125 33.546875 -34.546875 C 33.273438 -34.273438 33.007812 -33.273438 32.75 -31.546875 C 32.75 -30.878906 32.546875 -29.75 32.140625 -28.15625 L 71.28125 -28.15625 C 72.082031 -28.15625 72.78125 -28.1875 73.375 -28.25 C 73.976562 -28.320312 74.347656 -28.359375 74.484375 -28.359375 C 75.273438 -28.484375 75.738281 -28.75 75.875 -29.15625 C 76.144531 -29.414062 76.410156 -30.082031 76.671875 -31.15625 C 76.941406 -31.945312 77.140625 -33.410156 77.265625 -35.546875 Z M 37.9375 -35.546875 "/></g></g></g><g fill="#1d1d1b" fill-opacity="1"><g transform="translate(343.336565, 151.214846)"><g><path d="M 87.859375 -111.609375 C 89.054688 -120.128906 90.050781 -125.789062 90.84375 -128.59375 C 91.914062 -132.1875 93.25 -134.710938 94.84375 -136.171875 C 96.84375 -137.898438 99.640625 -138.96875 103.234375 -139.375 C 104.691406 -139.632812 106.816406 -139.765625 109.609375 -139.765625 C 112.410156 -139.765625 115.941406 -139.765625 120.203125 -139.765625 L 105.625 -35.546875 L 104.625 -28.15625 C 104.09375 -24.03125 103.625 -20.566406 103.21875 -17.765625 C 102.820312 -14.972656 102.425781 -12.910156 102.03125 -11.578125 C 100.96875 -7.453125 99.367188 -4.59375 97.234375 -3 C 95.640625 -1.925781 93.378906 -1.125 90.453125 -0.59375 C 87.660156 -0.195312 81.738281 0 72.6875 0 L 27.953125 0 C 23.429688 0 19.671875 -0.0976562 16.671875 -0.296875 C 13.679688 -0.492188 11.453125 -0.660156 9.984375 -0.796875 C 7.316406 -1.328125 5.320312 -2.257812 4 -3.59375 C 2.664062 -5.320312 2 -7.71875 2 -10.78125 C 2 -11.445312 2.03125 -12.144531 2.09375 -12.875 C 2.164062 -13.613281 2.203125 -14.378906 2.203125 -15.171875 C 2.460938 -16.367188 2.722656 -18.03125 2.984375 -20.15625 C 3.253906 -22.289062 3.59375 -24.957031 4 -28.15625 C 4.257812 -30.550781 4.65625 -33.507812 5.1875 -37.03125 C 5.71875 -40.5625 6.25 -44.722656 6.78125 -49.515625 C 7.445312 -54.304688 8.046875 -58.46875 8.578125 -62 C 9.117188 -65.53125 9.585938 -68.492188 9.984375 -70.890625 C 10.648438 -75.140625 11.179688 -78.597656 11.578125 -81.265625 C 11.984375 -83.929688 12.316406 -85.925781 12.578125 -87.25 C 13.640625 -90.976562 14.90625 -93.578125 16.375 -95.046875 C 18.101562 -96.773438 20.566406 -97.835938 23.765625 -98.234375 C 25.222656 -98.503906 27.28125 -98.703125 29.9375 -98.828125 C 32.601562 -98.960938 35.800781 -99.03125 39.53125 -99.03125 L 86.0625 -99.03125 Z M 45.125 -70.890625 C 44.195312 -70.890625 43.363281 -70.890625 42.625 -70.890625 C 41.894531 -70.890625 41.332031 -70.820312 40.9375 -70.6875 C 40 -70.6875 39.332031 -70.351562 38.9375 -69.6875 C 38.664062 -69.414062 38.332031 -68.679688 37.9375 -67.484375 C 37.9375 -66.816406 37.738281 -65.488281 37.34375 -63.5 L 32.34375 -28.15625 L 68.09375 -28.15625 C 69.550781 -28.15625 70.679688 -28.1875 71.484375 -28.25 C 72.285156 -28.320312 72.882812 -28.359375 73.28125 -28.359375 C 74.207031 -28.617188 74.804688 -28.882812 75.078125 -29.15625 C 75.742188 -29.550781 76.144531 -30.347656 76.28125 -31.546875 C 76.539062 -31.941406 76.738281 -32.472656 76.875 -33.140625 C 77.007812 -33.804688 77.140625 -34.609375 77.265625 -35.546875 L 82.0625 -70.890625 Z M 45.125 -70.890625 "/></g></g></g><g fill="#1d1d1b" fill-opacity="1"><g transform="translate(459.30141, 151.214846)"><g><path d="M 49.921875 -139.765625 L 45.328125 -106.421875 L 16.96875 -106.421875 L 17.578125 -111.8125 C 18.234375 -115.675781 18.757812 -118.867188 19.15625 -121.390625 C 19.5625 -123.921875 19.898438 -125.785156 20.171875 -126.984375 C 21.097656 -131.242188 22.425781 -134.242188 24.15625 -135.984375 C 25.882812 -137.710938 28.347656 -138.773438 31.546875 -139.171875 C 34.335938 -139.566406 40.460938 -139.765625 49.921875 -139.765625 Z M 15.96875 -99.03125 L 44.328125 -99.03125 L 38.53125 -58.703125 L 34.34375 -27.953125 C 33.28125 -21.035156 32.484375 -16.3125 31.953125 -13.78125 C 31.421875 -10.445312 30.488281 -7.785156 29.15625 -5.796875 C 27.550781 -3.398438 24.890625 -1.800781 21.171875 -1 C 19.835938 -0.726562 17.570312 -0.492188 14.375 -0.296875 C 11.175781 -0.0976562 7.050781 0 2 0 L 9.1875 -50.71875 Z M 15.96875 -99.03125 "/></g></g></g><g fill="#1d1d1b" fill-opacity="1"><g transform="translate(505.208321, 151.214846)"><g><path d="M 13.78125 -99.03125 C 22.695312 -99.03125 28.421875 -98.832031 30.953125 -98.4375 C 35.078125 -98.039062 37.738281 -96.84375 38.9375 -94.84375 C 39.863281 -93.78125 40.328125 -91.785156 40.328125 -88.859375 C 40.328125 -88.328125 40.328125 -87.691406 40.328125 -86.953125 C 40.328125 -86.222656 40.195312 -85.457031 39.9375 -84.65625 C 39.9375 -83.863281 39.800781 -82.332031 39.53125 -80.0625 C 39.269531 -77.800781 38.875 -74.742188 38.34375 -70.890625 L 33.34375 -35.34375 C 33.207031 -33.613281 33.007812 -32.28125 32.75 -31.34375 C 32.75 -30.945312 32.78125 -30.582031 32.84375 -30.25 C 32.914062 -29.914062 32.953125 -29.617188 32.953125 -29.359375 C 33.210938 -29.222656 33.441406 -29.085938 33.640625 -28.953125 C 33.835938 -28.816406 34.070312 -28.617188 34.34375 -28.359375 C 34.875 -28.222656 36.535156 -28.15625 39.328125 -28.15625 L 76.28125 -28.15625 L 82.265625 -70.890625 L 86.265625 -99.03125 C 96.109375 -99.03125 102.160156 -98.765625 104.421875 -98.234375 C 107.890625 -97.835938 110.15625 -96.570312 111.21875 -94.4375 C 112.019531 -93.113281 112.421875 -90.988281 112.421875 -88.0625 L 112.421875 -85.453125 C 112.285156 -83.191406 111.6875 -78.335938 110.625 -70.890625 L 104.625 -28.15625 C 104.226562 -24.5625 103.828125 -21.566406 103.421875 -19.171875 C 103.023438 -16.773438 102.695312 -14.910156 102.4375 -13.578125 C 102.03125 -11.710938 101.5625 -10.082031 101.03125 -8.6875 C 100.5 -7.289062 99.898438 -6.125 99.234375 -5.1875 C 97.773438 -3.0625 95.046875 -1.597656 91.046875 -0.796875 C 89.710938 -0.660156 87.847656 -0.492188 85.453125 -0.296875 C 83.054688 -0.0976562 80.128906 0 76.671875 0 L 23.953125 0 C 20.628906 0 17.800781 -0.0976562 15.46875 -0.296875 C 13.144531 -0.492188 11.316406 -0.660156 9.984375 -0.796875 C 6.523438 -1.328125 4.195312 -2.660156 3 -4.796875 C 2.332031 -6.523438 2 -8.519531 2 -10.78125 C 2 -11.445312 2.03125 -12.113281 2.09375 -12.78125 C 2.164062 -13.445312 2.203125 -14.113281 2.203125 -14.78125 C 2.460938 -17.4375 3.0625 -21.894531 4 -28.15625 C 4.394531 -30.8125 4.859375 -34.035156 5.390625 -37.828125 C 5.921875 -41.628906 6.519531 -45.992188 7.1875 -50.921875 C 7.988281 -55.972656 8.617188 -60.128906 9.078125 -63.390625 C 9.546875 -66.648438 9.847656 -69.148438 9.984375 -70.890625 Z M 13.78125 -99.03125 "/></g></g></g><g fill="#1d1d1b" fill-opacity="1"><g transform="translate(619.376772, 151.214846)"><g><path d="M 11.984375 -71.078125 C 12.648438 -75.472656 13.179688 -79.132812 13.578125 -82.0625 C 13.972656 -84.988281 14.375 -87.117188 14.78125 -88.453125 C 15.976562 -92.316406 17.507812 -94.910156 19.375 -96.234375 C 21.226562 -97.566406 24.019531 -98.4375 27.75 -98.84375 C 28.945312 -98.96875 30.410156 -99.03125 32.140625 -99.03125 C 33.878906 -99.03125 35.878906 -99.03125 38.140625 -99.03125 L 94.25 -99.03125 C 96.90625 -99.03125 99.128906 -99.03125 100.921875 -99.03125 C 102.722656 -99.03125 104.160156 -98.898438 105.234375 -98.640625 C 109.085938 -98.234375 111.679688 -96.96875 113.015625 -94.84375 C 113.941406 -93.507812 114.40625 -91.25 114.40625 -88.0625 C 114.40625 -87.65625 114.40625 -87.253906 114.40625 -86.859375 C 114.40625 -86.460938 114.34375 -85.992188 114.21875 -85.453125 C 114.21875 -84.253906 114.082031 -82.457031 113.8125 -80.0625 C 113.539062 -77.664062 113.140625 -74.671875 112.609375 -71.078125 L 111.609375 -63.703125 L 107.625 -35.546875 L 106.625 -28.15625 C 106.226562 -24.820312 105.828125 -21.988281 105.421875 -19.65625 C 105.023438 -17.332031 104.691406 -15.570312 104.421875 -14.375 C 103.628906 -10.113281 102.429688 -6.984375 100.828125 -4.984375 C 99.234375 -2.859375 96.238281 -1.460938 91.84375 -0.796875 C 89.050781 -0.398438 83.195312 -0.203125 74.28125 -0.203125 L 78.265625 -28.15625 L 79.265625 -35.546875 L 83.265625 -63.703125 L 84.265625 -71.078125 C 82.929688 -71.078125 81.796875 -71.078125 80.859375 -71.078125 C 79.929688 -71.078125 79.203125 -71.015625 78.671875 -70.890625 C 78.003906 -70.890625 77.335938 -70.554688 76.671875 -69.890625 C 76.535156 -69.753906 76.203125 -68.953125 75.671875 -67.484375 C 75.671875 -66.953125 75.472656 -65.691406 75.078125 -63.703125 L 71.078125 -35.546875 L 70.078125 -28.15625 C 69.546875 -24.289062 69.082031 -21.0625 68.6875 -18.46875 C 68.289062 -15.875 67.890625 -13.84375 67.484375 -12.375 C 66.691406 -8.78125 65.492188 -6.1875 63.890625 -4.59375 C 62.296875 -3 59.898438 -1.800781 56.703125 -1 C 55.367188 -0.863281 53.140625 -0.695312 50.015625 -0.5 C 46.890625 -0.300781 42.796875 -0.203125 37.734375 -0.203125 L 41.734375 -28.15625 L 42.734375 -35.546875 L 46.71875 -63.703125 L 47.71875 -71.078125 C 45.320312 -71.078125 43.859375 -71.015625 43.328125 -70.890625 C 42.398438 -70.890625 41.734375 -70.6875 41.328125 -70.28125 C 41.191406 -70.144531 40.988281 -69.910156 40.71875 -69.578125 C 40.457031 -69.253906 40.195312 -68.757812 39.9375 -68.09375 C 39.9375 -67.5625 39.734375 -66.097656 39.328125 -63.703125 L 35.34375 -35.546875 L 34.34375 -28.15625 C 33.144531 -19.769531 32.144531 -14.175781 31.34375 -11.375 C 30.414062 -7.519531 28.820312 -4.789062 26.5625 -3.1875 C 24.820312 -1.863281 22.15625 -1 18.5625 -0.59375 C 17.238281 -0.46875 15.210938 -0.367188 12.484375 -0.296875 C 9.753906 -0.234375 6.257812 -0.203125 2 -0.203125 L 5.984375 -28.15625 L 6.984375 -35.546875 L 10.984375 -63.703125 Z M 11.984375 -71.078125 "/></g></g></g><g fill="#1d1d1b" fill-opacity="1"><g transform="translate(735.541313, 151.214846)"><g><path d="M 27.359375 12.578125 C 26.160156 21.097656 25.160156 26.753906 24.359375 29.546875 C 23.554688 33.015625 22.222656 35.613281 20.359375 37.34375 C 18.765625 38.9375 15.972656 39.929688 11.984375 40.328125 C 9.453125 40.734375 3.796875 40.9375 -4.984375 40.9375 L 9.578125 -63.296875 L 10.578125 -70.6875 C 11.242188 -74.945312 11.773438 -78.472656 12.171875 -81.265625 C 12.578125 -84.054688 12.910156 -86.117188 13.171875 -87.453125 C 14.367188 -91.710938 15.96875 -94.507812 17.96875 -95.84375 C 19.5625 -97.039062 21.828125 -97.835938 24.765625 -98.234375 C 27.828125 -98.640625 33.75 -98.84375 42.53125 -98.84375 L 87.25 -98.84375 C 91.914062 -98.84375 95.742188 -98.773438 98.734375 -98.640625 C 101.734375 -98.503906 103.898438 -98.300781 105.234375 -98.03125 C 108.023438 -97.632812 110.019531 -96.769531 111.21875 -95.4375 C 112.550781 -93.976562 113.21875 -91.519531 113.21875 -88.0625 C 113.21875 -87.519531 113.21875 -86.882812 113.21875 -86.15625 C 113.21875 -85.425781 113.148438 -84.59375 113.015625 -83.65625 C 112.742188 -81.257812 112.144531 -76.9375 111.21875 -70.6875 L 105.234375 -27.953125 C 104.691406 -23.828125 104.222656 -20.429688 103.828125 -17.765625 C 103.429688 -15.109375 103.03125 -13.113281 102.625 -11.78125 C 101.832031 -8.320312 100.570312 -5.726562 98.84375 -4 C 97.101562 -2.257812 94.640625 -1.125 91.453125 -0.59375 C 88.648438 -0.195312 83.390625 0 75.671875 0 L 29.15625 0 Z M 70.078125 -27.953125 C 71.148438 -27.953125 72.015625 -27.984375 72.671875 -28.046875 C 73.335938 -28.117188 73.875 -28.15625 74.28125 -28.15625 C 75.34375 -28.550781 76.007812 -28.882812 76.28125 -29.15625 C 76.8125 -29.820312 77.140625 -30.550781 77.265625 -31.34375 C 77.535156 -32.28125 77.738281 -33.613281 77.875 -35.34375 L 82.859375 -70.6875 L 47.125 -70.6875 C 45.789062 -70.6875 44.691406 -70.6875 43.828125 -70.6875 C 42.960938 -70.6875 42.332031 -70.617188 41.9375 -70.484375 C 41.269531 -70.484375 40.671875 -70.21875 40.140625 -69.6875 C 39.734375 -69.289062 39.332031 -68.492188 38.9375 -67.296875 C 38.800781 -67.023438 38.664062 -66.554688 38.53125 -65.890625 C 38.40625 -65.222656 38.207031 -64.359375 37.9375 -63.296875 L 33.140625 -28.15625 L 33.140625 -27.953125 Z M 70.078125 -27.953125 "/></g></g></g><g fill="#1d1d1b" fill-opacity="1"><g transform="translate(850.508201, 151.214846)"><g><path d="M 9.78125 -71.078125 C 10.582031 -77.066406 11.179688 -80.992188 11.578125 -82.859375 C 12.773438 -88.984375 14.375 -93.046875 16.375 -95.046875 C 18.238281 -97.035156 21.097656 -98.234375 24.953125 -98.640625 C 26.421875 -98.898438 28.484375 -99.03125 31.140625 -99.03125 C 33.804688 -99.03125 37.132812 -99.03125 41.125 -99.03125 L 87.0625 -99.03125 C 91.976562 -99.03125 96 -98.960938 99.125 -98.828125 C 102.257812 -98.703125 104.492188 -98.4375 105.828125 -98.03125 C 108.222656 -97.632812 109.953125 -96.570312 111.015625 -94.84375 C 111.953125 -93.507812 112.421875 -91.3125 112.421875 -88.25 L 112.421875 -86.265625 C 112.421875 -83.734375 111.820312 -78.671875 110.625 -71.078125 L 104.625 -28.359375 C 103.695312 -21.296875 102.898438 -16.4375 102.234375 -13.78125 C 101.429688 -10.050781 100.429688 -7.320312 99.234375 -5.59375 C 97.773438 -3.332031 95.113281 -1.800781 91.25 -1 C 89.914062 -0.863281 87.785156 -0.695312 84.859375 -0.5 C 81.929688 -0.300781 78.203125 -0.203125 73.671875 -0.203125 L 26.75 -0.203125 C 22.488281 -0.203125 18.960938 -0.300781 16.171875 -0.5 C 13.378906 -0.695312 11.25 -0.863281 9.78125 -1 C 6.851562 -1.53125 4.722656 -2.660156 3.390625 -4.390625 C 2.992188 -5.191406 2.660156 -6.15625 2.390625 -7.28125 C 2.128906 -8.414062 2 -9.648438 2 -10.984375 L 2 -13.375 C 2.257812 -16.039062 2.859375 -21.035156 3.796875 -28.359375 C 4.585938 -32.742188 6.582031 -46.984375 9.78125 -71.078125 Z M 47.921875 -71.078125 C 46.328125 -71.078125 44.992188 -71.078125 43.921875 -71.078125 C 42.859375 -71.078125 42.0625 -71.015625 41.53125 -70.890625 C 40.195312 -70.617188 39.265625 -70.21875 38.734375 -69.6875 C 38.335938 -69.289062 37.9375 -68.160156 37.53125 -66.296875 C 37.53125 -66.160156 37.5 -65.859375 37.4375 -65.390625 C 37.375 -64.921875 37.273438 -64.359375 37.140625 -63.703125 L 32.140625 -28.359375 L 73.671875 -28.359375 C 74.609375 -28.617188 75.207031 -28.882812 75.46875 -29.15625 C 76.007812 -29.6875 76.28125 -30.285156 76.28125 -30.953125 C 76.539062 -31.347656 76.738281 -31.910156 76.875 -32.640625 C 77.007812 -33.378906 77.140625 -34.347656 77.265625 -35.546875 L 82.265625 -71.078125 Z M 47.921875 -71.078125 "/></g></g></g><g fill="#1d1d1b" fill-opacity="1"><g transform="translate(964.676652, 151.214846)"><g><path d="M 11.984375 -70.890625 C 13.179688 -78.472656 13.976562 -83.460938 14.375 -85.859375 C 15.3125 -90.117188 16.644531 -93.113281 18.375 -94.84375 C 19.96875 -96.707031 22.425781 -97.835938 25.75 -98.234375 C 28.550781 -98.640625 33.28125 -98.84375 39.9375 -98.84375 L 116.609375 -98.84375 C 116.078125 -94.707031 115.578125 -91.304688 115.109375 -88.640625 C 114.640625 -85.984375 114.207031 -83.925781 113.8125 -82.46875 C 112.75 -78.46875 111.285156 -75.738281 109.421875 -74.28125 C 107.691406 -72.675781 104.695312 -71.675781 100.4375 -71.28125 C 99.101562 -71.144531 97.101562 -71.046875 94.4375 -70.984375 C 91.78125 -70.921875 88.320312 -70.890625 84.0625 -70.890625 L 50.125 -70.890625 C 48.65625 -70.890625 47.421875 -70.890625 46.421875 -70.890625 C 45.421875 -70.890625 44.65625 -70.820312 44.125 -70.6875 C 43.320312 -70.6875 42.523438 -70.421875 41.734375 -69.890625 C 41.066406 -69.617188 40.535156 -68.816406 40.140625 -67.484375 C 40.003906 -67.085938 39.867188 -66.488281 39.734375 -65.6875 C 39.597656 -64.894531 39.398438 -63.832031 39.140625 -62.5 L 34.34375 -27.953125 C 33.414062 -20.492188 32.617188 -15.4375 31.953125 -12.78125 C 31.546875 -11.050781 31.078125 -9.484375 30.546875 -8.078125 C 30.015625 -6.679688 29.347656 -5.519531 28.546875 -4.59375 C 27.085938 -3 25.023438 -1.800781 22.359375 -1 C 21.023438 -0.726562 18.660156 -0.492188 15.265625 -0.296875 C 11.878906 -0.0976562 7.457031 0 2 0 Z M 11.984375 -70.890625 "/></g></g></g><g fill="#1d1d1b" fill-opacity="1"><g transform="translate(1080.042757, 151.214846)"><g><path d="M 45.921875 -139.765625 C 53.640625 -139.765625 58.960938 -139.566406 61.890625 -139.171875 C 67.347656 -138.773438 70.675781 -137.175781 71.875 -134.375 C 72.414062 -133.3125 72.6875 -131.582031 72.6875 -129.1875 C 72.6875 -128.65625 72.6875 -128.019531 72.6875 -127.28125 C 72.6875 -126.550781 72.550781 -125.722656 72.28125 -124.796875 C 72.28125 -123.066406 71.679688 -118.671875 70.484375 -111.609375 L 68.6875 -98.84375 L 112.609375 -98.84375 C 111.410156 -89.914062 110.414062 -83.988281 109.625 -81.0625 C 108.6875 -77.875 107.285156 -75.476562 105.421875 -73.875 C 103.554688 -72.539062 100.628906 -71.609375 96.640625 -71.078125 C 95.304688 -70.953125 93.304688 -70.851562 90.640625 -70.78125 C 87.984375 -70.71875 84.523438 -70.6875 80.265625 -70.6875 L 64.6875 -70.6875 L 63.703125 -63.5 L 59.703125 -35.34375 L 58.703125 -27.953125 L 102.625 -27.953125 C 102.09375 -23.828125 101.628906 -20.429688 101.234375 -17.765625 C 100.835938 -15.109375 100.4375 -13.046875 100.03125 -11.578125 C 98.96875 -7.847656 97.640625 -5.1875 96.046875 -3.59375 C 94.316406 -2.125 91.382812 -1.0625 87.25 -0.40625 C 85.925781 -0.269531 83.960938 -0.164062 81.359375 -0.09375 C 78.765625 -0.03125 75.539062 0 71.6875 0 L 53.515625 0 C 50.054688 0 47.125 -0.03125 44.71875 -0.09375 C 42.320312 -0.164062 40.394531 -0.203125 38.9375 -0.203125 C 33.875 -0.734375 30.613281 -2.0625 29.15625 -4.1875 C 28.351562 -5.65625 27.953125 -7.585938 27.953125 -9.984375 L 27.953125 -12.984375 C 28.347656 -15.640625 29.144531 -20.628906 30.34375 -27.953125 L 31.34375 -35.34375 L 35.34375 -63.5 L 36.34375 -70.6875 L 7.984375 -70.6875 C 8.515625 -74.28125 8.976562 -77.273438 9.375 -79.671875 C 9.78125 -82.066406 10.050781 -83.863281 10.1875 -85.0625 C 11.382812 -90.113281 12.847656 -93.507812 14.578125 -95.25 C 15.640625 -96.039062 16.867188 -96.734375 18.265625 -97.328125 C 19.660156 -97.929688 21.359375 -98.300781 23.359375 -98.4375 C 24.691406 -98.707031 26.421875 -98.84375 28.546875 -98.84375 C 30.679688 -98.84375 33.210938 -98.84375 36.140625 -98.84375 L 40.328125 -98.84375 Z M 45.921875 -139.765625 "/></g></g></g></g></g><g transform="matrix(1, 0, 0, 1, 84, 71)"><g clip-path="url(#1f8acf9afb)"><g fill="#1d1d1b" fill-opacity="1"><g transform="translate(2.058135, 246.400946)"><g><path d="M 15.484375 -112.1875 C 17.378906 -125.664062 18.957031 -134.617188 20.21875 -139.046875 C 21.695312 -144.941406 24.125 -149.257812 27.5 -152 C 30.238281 -154.101562 34.453125 -155.472656 40.140625 -156.109375 C 42.453125 -156.535156 45.554688 -156.75 49.453125 -156.75 C 53.347656 -156.75 58.140625 -156.75 63.828125 -156.75 L 181.078125 -156.75 C 179.179688 -142.414062 177.390625 -132.828125 175.703125 -127.984375 C 173.804688 -122.085938 170.644531 -117.976562 166.21875 -115.65625 C 164.957031 -115.03125 163.535156 -114.554688 161.953125 -114.234375 C 160.378906 -113.921875 158.429688 -113.554688 156.109375 -113.140625 C 152.316406 -112.503906 145.257812 -112.1875 134.9375 -112.1875 L 73 -112.1875 C 70.894531 -112.1875 69.050781 -112.1875 67.46875 -112.1875 C 65.882812 -112.1875 64.78125 -112.082031 64.15625 -111.875 C 62.675781 -111.875 61.617188 -111.347656 60.984375 -110.296875 C 60.566406 -109.867188 60.148438 -108.921875 59.734375 -107.453125 C 59.734375 -106.609375 59.414062 -104.394531 58.78125 -100.8125 L 128.296875 -100.8125 C 134.617188 -100.8125 139.832031 -100.8125 143.9375 -100.8125 C 148.050781 -100.8125 151.054688 -100.597656 152.953125 -100.171875 C 159.691406 -99.546875 164.222656 -97.863281 166.546875 -95.125 C 168.648438 -92.800781 169.703125 -88.691406 169.703125 -82.796875 L 169.703125 -80.90625 C 169.703125 -79.007812 169.488281 -76.003906 169.0625 -71.890625 C 168.644531 -67.785156 168.015625 -62.570312 167.171875 -56.25 L 165.59375 -44.5625 C 164.75 -37.601562 163.851562 -31.859375 162.90625 -27.328125 C 161.957031 -22.804688 161.164062 -19.382812 160.53125 -17.0625 C 159.269531 -12.632812 157.796875 -9.367188 156.109375 -7.265625 C 153.578125 -4.734375 150 -2.835938 145.375 -1.578125 C 143.257812 -1.367188 139.566406 -1.101562 134.296875 -0.78125 C 129.035156 -0.46875 122.398438 -0.3125 114.390625 -0.3125 L 44.875 -0.3125 C 36.65625 -0.3125 30.015625 -0.46875 24.953125 -0.78125 C 19.898438 -1.101562 16.21875 -1.367188 13.90625 -1.578125 C 9.90625 -2.835938 7.0625 -4.523438 5.375 -6.640625 C 3.894531 -8.953125 3.15625 -12.53125 3.15625 -17.375 C 3.15625 -21.59375 4.101562 -30.65625 6 -44.5625 L 109.96875 -44.5625 C 111.863281 -44.5625 113.441406 -44.613281 114.703125 -44.71875 C 115.972656 -44.820312 116.816406 -44.875 117.234375 -44.875 C 118.296875 -45.082031 119.25 -45.609375 120.09375 -46.453125 C 120.925781 -47.710938 121.34375 -48.976562 121.34375 -50.25 C 121.769531 -51.507812 122.085938 -53.507812 122.296875 -56.25 L 44.875 -56.25 C 40.65625 -56.25 36.96875 -56.300781 33.8125 -56.40625 C 30.65625 -56.507812 28.128906 -56.671875 26.234375 -56.890625 C 20.328125 -57.515625 16.003906 -58.988281 13.265625 -61.3125 C 11.160156 -63.832031 10.109375 -67.410156 10.109375 -72.046875 L 10.109375 -75.84375 C 10.535156 -77.945312 11.0625 -81.050781 11.6875 -85.15625 C 12.320312 -89.269531 13.0625 -94.488281 13.90625 -100.8125 Z M 15.484375 -112.1875 "/></g></g></g><g clip-path="url(#326195091c)"><g fill="#1d1d1b" fill-opacity="1"><g transform="translate(149.282785, 246.400946)"><g><path d="M 43.296875 19.90625 C 41.398438 33.394531 39.816406 42.347656 38.546875 46.765625 C 37.285156 52.242188 35.179688 56.351562 32.234375 59.09375 C 29.703125 61.625 25.28125 63.203125 18.96875 63.828125 C 14.957031 64.460938 6 64.78125 -7.90625 64.78125 L 15.171875 -100.171875 L 16.75 -111.875 C 17.800781 -118.613281 18.640625 -124.191406 19.265625 -128.609375 C 19.898438 -133.035156 20.429688 -136.304688 20.859375 -138.421875 C 22.753906 -145.160156 25.28125 -149.582031 28.4375 -151.6875 C 30.96875 -153.582031 34.550781 -154.847656 39.1875 -155.484375 C 44.03125 -156.109375 53.40625 -156.421875 67.3125 -156.421875 L 138.09375 -156.421875 C 145.46875 -156.421875 151.523438 -156.316406 156.265625 -156.109375 C 161.003906 -155.898438 164.429688 -155.582031 166.546875 -155.15625 C 170.960938 -154.53125 174.117188 -153.164062 176.015625 -151.0625 C 178.128906 -148.738281 179.1875 -144.835938 179.1875 -139.359375 C 179.1875 -138.515625 179.1875 -137.515625 179.1875 -136.359375 C 179.1875 -135.203125 179.078125 -133.882812 178.859375 -132.40625 C 178.441406 -128.613281 177.492188 -121.769531 176.015625 -111.875 L 166.546875 -44.25 C 165.703125 -37.71875 164.960938 -32.34375 164.328125 -28.125 C 163.691406 -23.914062 163.0625 -20.753906 162.4375 -18.640625 C 161.164062 -13.160156 159.160156 -9.054688 156.421875 -6.328125 C 153.679688 -3.585938 149.785156 -1.796875 144.734375 -0.953125 C 140.304688 -0.316406 131.984375 0 119.765625 0 L 46.140625 0 Z M 110.921875 -44.25 C 112.609375 -44.25 113.976562 -44.300781 115.03125 -44.40625 C 116.082031 -44.507812 116.925781 -44.5625 117.5625 -44.5625 C 119.25 -45.1875 120.300781 -45.710938 120.71875 -46.140625 C 121.5625 -47.191406 122.085938 -48.347656 122.296875 -49.609375 C 122.722656 -51.085938 123.039062 -53.195312 123.25 -55.9375 L 131.140625 -111.875 L 74.578125 -111.875 C 72.472656 -111.875 70.734375 -111.875 69.359375 -111.875 C 67.992188 -111.875 66.992188 -111.765625 66.359375 -111.546875 C 65.304688 -111.546875 64.359375 -111.128906 63.515625 -110.296875 C 62.890625 -109.660156 62.257812 -108.394531 61.625 -106.5 C 61.414062 -106.070312 61.203125 -105.332031 60.984375 -104.28125 C 60.773438 -103.226562 60.460938 -101.859375 60.046875 -100.171875 L 52.453125 -44.5625 L 52.453125 -44.25 Z M 110.921875 -44.25 "/></g></g></g></g></g></g></svg>